<?xml version="1.0" encoding="UTF-8" standalone="no"?>
<svg
   xmlns:dc="http://purl.org/dc/elements/1.1/"
   xmlns:cc="http://creativecommons.org/ns#"
   xmlns:rdf="http://www.w3.org/1999/02/22-rdf-syntax-ns#"
   xmlns:svg="http://www.w3.org/2000/svg"
   xmlns="http://www.w3.org/2000/svg"
   xmlns:sodipodi="http://sodipodi.sourceforge.net/DTD/sodipodi-0.dtd"
   xmlns:inkscape="http://www.inkscape.org/namespaces/inkscape"
   id="Layer_1"
   data-name="Layer 1"
   height="10.582317mm"
   width="16.784603mm"
   viewBox="0 0 47.579661 29.993488"
   version="1.1"
   inkscape:version="0.91 r13725"
   sodipodi:docname="RTE Junior Radio.svg">
  <metadata
     id="metadata89">
    <rdf:RDF>
      <cc:Work
         rdf:about="">
        <dc:format>image/svg+xml</dc:format>
        <dc:type
           rdf:resource="http://purl.org/dc/dcmitype/StillImage" />
        <dc:title>RTEjnr_Radio_Avatar</dc:title>
      </cc:Work>
    </rdf:RDF>
  </metadata>
  <sodipodi:namedview
     pagecolor="#ffffff"
     bordercolor="#666666"
     borderopacity="1"
     objecttolerance="10"
     gridtolerance="10"
     guidetolerance="10"
     inkscape:pageopacity="0"
     inkscape:pageshadow="2"
     inkscape:window-width="1920"
     inkscape:window-height="1017"
     id="namedview87"
     showgrid="false"
     inkscape:zoom="16"
     inkscape:cx="18.765291"
     inkscape:cy="4.5258411"
     inkscape:window-x="-8"
     inkscape:window-y="-8"
     inkscape:window-maximized="1"
     inkscape:current-layer="Layer_1"
     fit-margin-top="0"
     fit-margin-left="0"
     fit-margin-right="0"
     fit-margin-bottom="0" />
  <defs
     id="defs3">
    <style
       id="style5">.cls-1{fill:#70ad51;}.cls-2{fill:#fff;}.cls-3{fill:#84b740;}.cls-4{fill:#7ac143;}.cls-5{fill:#c1d82f;}.cls-6{fill:#19398a;}.cls-7{fill:#ef5091;}.cls-8{fill:#9c9fc9;}.cls-9{fill:#cdc928;}.cls-10{fill:#d74b7a;}.cls-11{fill:#00abe4;}.cls-12{fill:#ffce29;}.cls-13{fill:none;stroke:#19398a;stroke-width:0.06px;}</style>
  </defs>
  <title
     id="title7">RTEjnr_Radio_Avatar</title>
  <path
     class="cls-1"
     d="m 27.235535,26.320756 a 1.67,1.67 0 0 1 -1.64,1.69 l -17.6900004,0 a 1.67,1.67 0 0 1 -1.64,-1.69 l 0,-3.85 a 1.67,1.67 0 0 1 1.64,-1.74 l 17.6900004,0 a 1.67,1.67 0 0 1 1.64,1.69 l 0,3.86 z"
     id="path9"
     inkscape:connector-curvature="0"
     style="fill:#70ad51" />
  <path
     class="cls-2"
     d="m 29.19,22.545756 c 0.02783,-2.086656 -1.653165,-3.794621 -3.74,-3.8 l -17.4,0 c -2.0868351,0.0054 -3.7681172,1.713344 -3.7402857,3.8 l 2.857e-4,3.7 c 1.596e-4,2.067169 1.6728385,3.744488 3.74,3.75 l 17.4,0 c 2.067161,-0.0055 3.740007,-1.682831 3.74,-3.75 z"
     id="path11"
     inkscape:connector-curvature="0"
     style="fill:#ffffff;fill-opacity:1"
     sodipodi:nodetypes="ccccsccsc" />
  <path
     style="fill:#88b94c"
     inkscape:connector-curvature="0"
     id="path6"
     d="M 45.456136,11.504773 C 44.676558,10.725496 43.685978,10.31218 42.591092,10.31218 l -0.718733,0 c -0.661786,0 -1.30409,0.115393 -1.90623,0.342282 -0.142356,-0.206208 -0.305119,-0.401028 -0.480454,-0.578464 -0.779278,-0.7792772 -1.7701,-1.1916942 -2.863933,-1.1916942 -0.332991,0 -0.668081,0.04227 -0.994868,0.125583 -0.178371,-1.361936 -0.766031,-2.562922 -1.75883,-3.574184 l -0.0082,-0.0063 c -0.171181,-0.17714 -0.373255,-0.355774 -0.591812,-0.529913 -0.01855,-0.221494 -0.05155,-0.433098 -0.101037,-0.623721 -0.198987,-0.747507 -0.561739,-1.393707 -1.07846,-1.922717 -0.829928,-0.847313 -1.894841,-1.288804 -3.08144,-1.273218 -1.156627,0.0081 -2.166091,0.436994 -2.996921,1.278314 l 0.0051,0 c -0.02576,0.01978 -0.05066,0.04226 -0.07223,0.06384 l -0.183445,0.179533 -0.556883,0.544296 -0.814345,0.794862 -0.0063,0.0072 -0.02788,0.02996 c -0.194799,0.210405 -0.360545,0.444488 -0.493622,0.691758 -1.017556,-0.95881 -2.24252,-1.447357 -3.644619,-1.447357 l -0.200813,0 c -0.354872,-0.498138 -0.782575,-0.934233 -1.285808,-1.287905 -0.925841,-0.663884 -1.96168,-1.00197098 -3.075147,-1.00197098 -1.472234,0 -2.747551,0.52900998 -3.787887,1.57324098 -0.280239,0.276344 -0.523613,0.583559 -0.733119,0.91655 -0.465768,-0.12978 -0.944124,-0.199915 -1.428774,-0.199915 l -1.155728,0 c -2.082468,0 -3.89099,0.752602 -5.377611,2.241321 -1.483624,1.482425 -2.238923,3.29784 -2.238923,5.3937962 l 0,2.272193 c 0,1.485721 0.524513,2.760139 1.552559,3.790883 1.031044,1.031044 2.307859,1.553759 3.792682,1.553759 1.473433,0 2.740358,-0.522715 3.773499,-1.553759 0.628817,-0.629716 1.069108,-1.355643 1.320575,-2.163992 0.325798,0.541297 0.72263,1.04543 1.187798,1.505203 1.496812,1.468038 3.302936,2.212548 5.367121,2.212548 l 1.152431,0 c 1.460845,0 2.733164,-0.527811 3.774398,-1.571143 0.143267,-0.144466 0.277244,-0.301221 0.407322,-0.463969 1.41229,1.357741 3.121605,2.046501 5.082686,2.040207 l 2.174184,-0.003 c 0.213413,0 0.433097,-0.01978 0.652494,-0.04855 -0.0061,0.07313 -0.0082,0.145365 -0.0082,0.211303 0,1.086792 0.408221,2.06928 1.179404,2.842563 0.780417,0.778377 1.767039,1.189596 2.851614,1.189596 1.50005,0 2.802162,-0.537101 3.867313,-1.596919 l 0.0051,-0.0072 0.0021,-0.0021 c 0,0 0.02026,-0.02367 0.03296,-0.03417 0.432798,0.154656 0.887474,0.236182 1.35564,0.236182 1.101181,0 2.090863,-0.408222 2.865043,-1.181505 0.579362,-0.582359 0.959711,-1.308285 1.11047,-2.105247 0.376152,-0.190623 0.724726,-0.439092 1.02475,-0.738215 0.777179,-0.780176 1.191693,-1.774054 1.191693,-2.874033 0,-1.094885 -0.414514,-2.085766 -1.191693,-2.863244" />
  <path
     style="fill:#cfcb3a"
     inkscape:connector-curvature="0"
     id="path8"
     d="m 44.722416,12.235795 c -0.588655,-0.589853 -1.305291,-0.889874 -2.131024,-0.889874 l -0.718734,0 c -0.870989,0 -1.665854,0.23528 -2.369001,0.690859 -0.139372,-0.457676 -0.391736,-0.870094 -0.750504,-1.230059 -0.590841,-0.587456 -1.306336,-0.8874782 -2.132131,-0.8874782 -0.77838,0 -1.458806,0.2649562 -2.027918,0.7834742 0.0433,-0.267053 0.06392,-0.536203 0.06392,-0.8032552 l 0,-0.0111 c -0.003,-1.448556 -0.522686,-2.704391 -1.535084,-3.733337 l -0.001,0 c -0.258749,-0.270949 -0.55252,-0.514323 -0.868128,-0.725627 0.0012,-0.01439 0.0085,-0.135175 0.0085,-0.135175 0,-0.260758 -0.03296,-0.516421 -0.095,-0.760694 -0.151507,-0.566168 -0.427852,-1.057712 -0.818691,-1.457841 -0.633011,-0.649497 -1.418582,-0.9702 -2.324641,-0.961808 l -0.01049,0 c -0.877284,0.0081 -1.642175,0.336888 -2.276386,0.979192 l -1.608309,1.572341 -0.01648,0.01557 c -0.31531,0.341098 -0.51013,0.73703 -0.582363,1.180319 -0.209206,0.16185 -0.411518,0.340185 -0.601242,0.525712 -0.18643,-0.309313 -0.409124,-0.598844 -0.671081,-0.860801 -0.84132,-0.843418 -1.862772,-1.268124 -3.041279,-1.268124 l -0.76489,0 c -0.314409,-0.586556 -0.755899,-1.083495 -1.319675,-1.478228 -0.748407,-0.5392 -1.583732,-0.812547 -2.476304,-0.812547 -1.188697,0 -2.216743,0.425905 -3.058961,1.269323 -0.429801,0.4307 -0.7547,0.92674 -0.965105,1.475231 -0.586557,-0.302119 -1.232757,-0.453779 -1.925713,-0.453779 l -1.156628,0 c -1.795934,0 -3.356885,0.650697 -4.64569,1.936204 C 2.616577,7.4780018 1.96618,9.0470468 1.96618,10.857367 l 0,2.272193 c 0,1.200087 0.422608,2.229931 1.252838,3.059861 0.827233,0.829931 1.858276,1.249541 3.057764,1.249541 1.188697,0 2.212547,-0.41961 3.040379,-1.249541 0.84132,-0.841319 1.269921,-1.872063 1.269921,-3.059861 l 0,-0.342283 c 0.332992,-0.06504 0.652795,-0.169941 0.953716,-0.311411 0.277243,1.151532 0.860801,2.17838 1.743482,3.05057 1.297797,1.268124 2.858749,1.912526 4.643293,1.912526 l 1.151531,0 c 1.177608,0 2.202358,-0.425605 3.043378,-1.268123 0.442389,-0.441191 0.770285,-0.942326 0.983687,-1.489619 0.217597,0.309313 0.463969,0.607237 0.734918,0.882382 1.240249,1.254636 2.754745,1.887649 4.498227,1.883752 l 2.175381,-0.0063 c 0.897967,-0.0021 1.69493,-0.255664 2.381471,-0.746308 -0.04847,0.05755 -0.09588,0.114193 -0.14021,0.174138 -0.370094,0.516421 -0.558922,1.111369 -0.558922,1.769258 0,0.818541 0.296142,1.528883 0.876448,2.110343 0.588684,0.588654 1.301062,0.887476 2.119663,0.887476 1.21858,0 2.276358,-0.436994 3.141388,-1.301093 0.180334,-0.176236 0.342192,-0.370156 0.488755,-0.572169 0.478356,0.309313 1.026549,0.468166 1.632886,0.468166 0.832928,0 1.549563,-0.294926 2.131021,-0.876387 0.578465,-0.578463 0.87639,-1.282511 0.885679,-2.094757 0.469067,-0.140269 0.891674,-0.390837 1.249542,-0.748705 0.590753,-0.591651 0.890773,-1.311284 0.890773,-2.143312 0,-0.825733 -0.300012,-1.54117 -0.890773,-2.131922" />
  <path
     style="fill:#ffffff"
     d="m 27.194975,6.35645 c 0.01139,0.011389 0.02278,0.024577 0.02278,0.024577 0,0 1.808223,-0.08662 1.820511,-0.088418 0.389938,0.00929 0.692957,-0.1702421 0.880583,-0.521816 l 0.003,-0.00719 0.0021,-0.003 C 30.119962,5.3448884 30.059118,4.9585469 29.746808,4.6399424 29.570272,4.4562129 29.349676,4.3585035 29.091915,4.342918 28.833255,4.329431 28.605467,4.410056 28.411547,4.5850933 l -0.0051,0.0054 -1.353544,1.3040902 -0.01049,0.013488 c -0.03926,0.055449 -0.05875,0.1153929 -0.05875,0.1729396 0,0.072233 0.02997,0.1414687 0.08752,0.2002142 0.04046,0.044359 0.08362,0.06474 0.123785,0.07523"
     id="path12"
     inkscape:connector-curvature="0" />
  <path
     style="fill:#ffffff"
     d="m 9.704401,7.2286409 -1.156627,0 c -0.9866846,0 -1.8483852,0.3596663 -2.5578271,1.0691082 -0.7088424,0.710341 -1.0685088,1.5711425 -1.0685088,2.5599249 l 0,2.272192 c 0,0.36686 0.1348749,0.686663 0.4016275,0.953715 0.2667525,0.266753 0.587455,0.401928 0.9546144,0.401928 0.3659605,0 0.686663,-0.135175 0.9462222,-0.404026 0.2577608,-0.264954 0.3917366,-0.585656 0.3917366,-0.951617 l 0,-2.272192 c 0,-0.271248 0.089917,-0.493941 0.2733464,-0.677371 C 8.0745131,9.9965731 8.2921112,9.9048582 8.547774,9.9048582 l 1.156627,0 c 0.367159,0 0.684565,-0.1309785 0.944424,-0.3917366 0.260758,-0.2616573 0.392935,-0.5781636 0.392935,-0.9462222 0,-0.3650613 -0.132177,-0.6845649 -0.392935,-0.9456227 C 10.388966,7.3617175 10.07156,7.2286409 9.704401,7.2286409"
     id="path14"
     inkscape:connector-curvature="0" />
  <path
     style="fill:#ffffff"
     d="m 20.216549,7.2286409 -3.225008,0 0,-0.9516172 c 0,-0.3671594 -0.12978,-0.6845649 -0.393835,-0.945323 -0.259559,-0.261957 -0.577264,-0.3929355 -0.943225,-0.3929355 -0.36596,0 -0.685464,0.1309785 -0.954614,0.3908374 -0.264954,0.2607581 -0.402227,0.5802617 -0.402227,0.9474211 l 0,4.4134053 -0.0039,0 c 0,0 0.0039,0.201114 0.0039,0.20531 l 0,0.01139 c 0.02907,0.984587 0.392935,1.833999 1.086792,2.528754 0.698951,0.695955 1.55166,1.049627 2.542241,1.049627 l 1.151532,0 c 0.370157,0 0.68996,-0.135175 0.950718,-0.404026 0.256562,-0.264954 0.389639,-0.585656 0.389639,-0.951617 0,-0.367159 -0.133077,-0.684565 -0.393835,-0.945323 -0.25866,-0.261957 -0.578463,-0.392935 -0.946522,-0.392935 l -1.151532,0 c -0.59285,-0.03507 -0.881482,-0.306316 -0.935132,-0.911455 l 0,-0.9752948 3.225008,0 c 0.36596,0 0.686663,-0.1309785 0.945323,-0.3917366 0.260758,-0.2616573 0.391737,-0.5781636 0.391737,-0.9462222 0,-0.3650613 -0.130979,-0.6845649 -0.391737,-0.9456227 -0.25866,-0.2595592 -0.579363,-0.3926358 -0.945323,-0.3926358"
     id="path16"
     inkscape:connector-curvature="0" />
  <path
     style="fill:#ffffff"
     d="m 31.812192,13.342669 0,-0.184329 c 0,0 -0.01559,-0.02488 -0.01738,-0.03297 0,-0.0033 -0.0021,-0.177435 -0.0021,-0.177435 0,0 -0.01049,-0.0093 -0.01768,-0.01738 l 0,-0.123785 c 0,0 -0.02458,-0.0051 -0.03507,-0.0093 l 0,-0.04226 c 0,0 -0.01948,-0.01768 -0.03387,-0.03507 l 0,-0.03507 -0.05874,-0.05994 c -0.119589,-0.229886 -0.305117,-0.417512 -0.548491,-0.555684 -0.0033,0 -0.06414,-0.06264 -0.06414,-0.06264 0,0 -0.01948,0.0018 -0.03687,0.0018 -0.01439,-0.01828 -0.03297,-0.03597 -0.03297,-0.03597 l -0.08662,0 c -0.01978,-0.0072 -0.03716,-0.01019 -0.05695,-0.01019 -0.02038,-0.01259 -0.04406,-0.01558 -0.06894,-0.01978 0.524813,-0.325798 0.857804,-0.840121 0.99178,-1.540271 0.01229,-0.01139 0.02578,-0.02458 0.02578,-0.02458 0,0 -0.0021,-0.137273 -0.0021,-0.141169 0.01049,-0.02698 0.01648,-0.05994 0.01648,-0.09711 l 0,-0.05365 0.0051,-0.05665 0.01349,-0.1360742 C 31.800802,9.2322821 31.563722,8.662211 31.101851,8.1931461 30.635783,7.7240813 30.066911,7.4879004 29.403926,7.4879004 l -1.087691,0.0033 c -0.94862,0.0018 -1.773155,0.3545711 -2.451726,1.0484274 -0.67827,0.6905594 -1.021452,1.5297812 -1.017556,2.4918882 0,0.962707 0.347378,1.801029 1.028946,2.48949 0.681568,0.687862 1.510299,1.038237 2.455921,1.034341 l 2.175083,-0.0033 c 0.438193,-0.0021 0.778378,-0.182531 1.022951,-0.530808 l 0.110297,0 0,-0.03417 0.01738,0 0,-0.05245 0.03297,0 0,-0.08782 0.03627,0 0,-0.136074 c 0,-0.0018 0,-0.0018 8.99e-4,-0.0039 l 0.04856,0 0,-0.190923 c 0.0072,-0.0072 0.01858,-0.01648 0.01858,-0.01648 l 0,-0.139071 0.01738,-0.01768"
     id="path18"
     inkscape:connector-curvature="0" />
  <path
     style="fill:#354b7e"
     inkscape:connector-curvature="0"
     id="path20"
     d="M 44.098995,12.858917 C 43.679384,12.439306 43.17735,12.230999 42.591692,12.230999 l -0.718731,0 c -0.972,0 -1.810321,0.347378 -2.507176,1.04543 -0.326996,0.326697 -0.576366,0.685464 -0.748527,1.076302 -0.04227,-0.110298 -0.09174,-0.219696 -0.15052,-0.3237 0.194848,-0.34438 0.289702,-0.708243 0.289702,-1.090688 0,-0.584757 -0.209301,-1.086792 -0.629928,-1.504304 -0.417543,-0.421709 -0.920654,-0.630915 -1.505203,-0.630915 -0.592791,0 -1.097972,0.209207 -1.517584,0.630915 -0.412357,0.411518 -0.618564,0.912353 -0.618564,1.504304 0,0.406123 0.10205,0.767887 0.303108,1.090688 -0.201046,0.330894 -0.303108,0.694756 -0.303108,1.091887 l 0,1.506103 c -0.411339,0.143267 -0.749515,0.395933 -1.011383,0.758896 -0.262882,0.364761 -0.392786,0.780177 -0.392786,1.253438 0,0.577563 0.205158,1.072404 0.61653,1.484822 0.419582,0.419311 0.918586,0.629716 1.494892,0.629716 0.982488,0 1.82273,-0.347378 2.518623,-1.04633 0.427853,-0.415414 0.721673,-0.888675 0.887659,-1.414388 0.08971,0.153456 0.203011,0.300923 0.339075,0.436995 0.412418,0.413317 0.919847,0.617428 1.51779,0.617428 0.592551,0 1.097881,-0.204112 1.507303,-0.617428 0.419312,-0.420509 0.628816,-0.92674 0.628816,-1.518691 l 0,-0.708243 c 0.593749,0 1.094885,-0.207108 1.507303,-0.619525 0.420509,-0.417513 0.629716,-0.924643 0.629716,-1.515394 0,-0.586856 -0.20921,-1.087691 -0.629716,-1.5094" />
  <path
     style="fill:#d7557f"
     inkscape:connector-curvature="0"
     id="path22"
     d="m 35.913364,17.211179 c 0,0.369257 -0.172169,0.597047 -0.516512,0.686663 -0.0433,0.01557 -0.113389,0.02697 -0.20413,0.03417 -0.179366,0 -0.343299,0.06684 -0.487647,0.202014 -0.148464,0.136072 -0.219612,0.303019 -0.219612,0.504132 0,0.195718 0.06909,0.363863 0.206217,0.501135 0.13915,0.13997 0.306194,0.209207 0.501042,0.209207 0.57115,0 1.066022,-0.203211 1.485602,-0.607237 0.425786,-0.412417 0.644373,-0.903062 0.649528,-1.474332 l 0,-2.147508 c 0,-0.202013 -0.067,-0.373154 -0.206217,-0.509227 -0.138153,-0.14027 -0.306195,-0.209207 -0.500026,-0.209207 -0.187621,0 -0.351545,0.06684 -0.493822,0.202013 -0.143294,0.133978 -0.214441,0.300021 -0.214441,0.493642 z" />
  <path
     style="fill:#dde0eb"
     inkscape:connector-curvature="0"
     id="path24"
     d="m 41.164117,15.795293 c 0,-0.203211 0.07012,-0.373154 0.208303,-0.510426 0.137881,-0.141168 0.306016,-0.209207 0.500837,-0.209207 l 0.718731,0 c 0.194817,0 0.363863,-0.07014 0.500837,-0.209208 0.139362,-0.136072 0.208302,-0.303318 0.208302,-0.499037 0,-0.194819 -0.06894,-0.360865 -0.208302,-0.501135 -0.136974,-0.139071 -0.306017,-0.208305 -0.500837,-0.208305 l -0.718731,0 c -0.58356,0 -1.086492,0.210404 -1.506104,0.630914 -0.419611,0.419611 -0.630916,0.922845 -0.630916,1.506402 l 0,1.416487 c 0,0.19482 0.07015,0.362963 0.214289,0.50623 0.143263,0.143266 0.312313,0.214302 0.506232,0.214302 0.19391,0 0.360863,-0.07103 0.499936,-0.214302 0.139362,-0.143266 0.207396,-0.311411 0.207396,-0.50623 z" />
  <path
     style="fill:#ffffff"
     inkscape:connector-curvature="0"
     id="path26"
     d="m 37.510746,14.092872 -0.840241,-0.45258 -0.846416,0.437295 0.17217,-0.93843 -0.676321,-0.673175 0.944363,-0.126785 0.426835,-0.851509 0.415475,0.858702 0.943313,0.146566 -0.691757,0.658789 z" />
  <path
     style="fill:#354b7e"
     inkscape:connector-curvature="0"
     id="path28"
     d="m 33.415344,11.677413 c 0.240227,-0.573368 0.359818,-1.170415 0.35775,-1.7878422 -0.0021,-1.215373 -0.430941,-2.254808 -1.28263,-3.119806 -0.360867,-0.373154 -0.756498,-0.664783 -1.187499,-0.879384 0.09262,-0.37735 0.101899,-0.772084 0.0082,-1.13175 -0.111308,-0.417812 -0.309421,-0.772384 -0.595954,-1.066111 -0.460673,-0.471163 -1.025649,-0.703148 -1.688634,-0.693856 -0.646501,0.003 -1.204283,0.245472 -1.67125,0.725926 l -1.585529,1.550462 -0.01049,0.0081 c -0.232882,0.250568 -0.359666,0.545494 -0.37615,0.882681 -0.0042,0.05755 -0.0042,0.111196 0,0.166046 -0.328797,0.215189 -0.637212,0.475048 -0.930939,0.774171 -0.327895,0.335092 -0.605137,0.689663 -0.829929,1.064016 -0.08242,-0.770285 -0.412418,-1.442562 -0.989682,-2.018627 -0.671077,-0.673176 -1.478528,-1.009464 -2.415758,-1.009464 l -1.334962,0 c -0.240078,-0.676172 -0.660887,-1.220468 -1.26183,-1.642176 -0.601242,-0.433099 -1.256734,-0.648599 -1.964977,-0.648599 -0.950718,0 -1.762065,0.335989 -2.434042,1.010363 -0.65789,0.65789 -0.988783,1.459946 -0.992979,2.40407 -0.03507,-0.03896 -0.07013,-0.07823 -0.1073,-0.114194 -0.674075,-0.673176 -1.480327,-1.009464 -2.416358,-1.009464 l -1.156927,0 c -1.559753,0 -2.900709,0.558682 -4.018672,1.676345 -1.12096,1.118563 -1.678443,2.464014 -1.678443,4.0393532 l 0,2.272193 c 0,0.961807 0.329694,1.773155 0.99208,2.43524 0.662385,0.659688 1.474632,0.992679 2.434941,0.992679 0.94862,0 1.754572,-0.332991 2.415459,-0.992679 0.672277,-0.673175 1.011562,-1.485722 1.011562,-2.43524 l 0,-1.135047 c 0.949519,0 1.753672,-0.330894 2.416358,-0.992679 0.03716,-0.03627 0.07223,-0.07553 0.107299,-0.112398 l 0,0.0039 c 0.0114,1.576538 0.570071,2.909401 1.676345,4.004286 1.13205,1.106273 2.472406,1.65986 4.022867,1.65986 l 1.151532,0 c 0.939329,0 1.745281,-0.338985 2.418757,-1.011262 0.671977,-0.674374 1.008265,-1.478528 1.008265,-2.416658 0,-0.600943 -0.149562,-1.159924 -0.450483,-1.677244 0.310213,-0.201113 0.577264,-0.440292 0.808051,-0.717535 -0.0051,0.09891 -0.0081,0.200814 -0.0081,0.30182 0.0042,1.518691 0.542197,2.820983 1.614303,3.905377 1.073304,1.085593 2.364206,1.624792 3.868211,1.620597 l 2.174482,-0.0051 c 0.91835,-0.0021 1.695828,-0.324599 2.324674,-0.969001 0.633015,-0.6465 0.946434,-1.436268 0.945385,-2.370201 -0.003,-0.538301 -0.1237,-1.050526 -0.367011,-1.541171 M 10.505199,9.3689538 c -0.221495,0.223593 -0.490645,0.335089 -0.800857,0.335089 l -1.156927,0 c -0.31231,0 -0.578164,0.110299 -0.800857,0.3329922 -0.221794,0.222693 -0.332991,0.495739 -0.332991,0.820638 l 0,2.272193 c 0,0.313509 -0.111496,0.584457 -0.335089,0.812546 -0.221795,0.227788 -0.487648,0.342283 -0.801157,0.342283 -0.31231,0 -0.58266,-0.114496 -0.810448,-0.342283 -0.230786,-0.228089 -0.34468,-0.499037 -0.34468,-0.812546 l 0,-2.272193 c 0,-0.9393292 0.338685,-1.7434822 1.009763,-2.4166592 0.674374,-0.671976 1.480327,-1.009163 2.415459,-1.009163 l 1.156927,0 c 0.310212,0 0.579362,0.110299 0.800857,0.331792 0.223893,0.222693 0.334189,0.493043 0.334189,0.803255 0,0.314408 -0.110298,0.580262 -0.334189,0.802056 m 10.513946,0 c -0.222693,0.223593 -0.487648,0.335089 -0.802356,0.335089 l -3.426721,0 0,1.1895972 c 0.06084,0.710341 0.441191,1.064013 1.137146,1.064013 l 1.151531,0.03716 c 0.315607,0 0.581461,0.110299 0.805053,0.332092 0.221795,0.222692 0.332991,0.489446 0.332991,0.802955 0,0.313509 -0.111197,0.584458 -0.332991,0.812546 -0.223594,0.227788 -0.489446,0.342283 -0.805053,0.342283 l -1.151531,0 c -0.939329,10e-7 -1.738088,-0.331191 -2.400174,-0.992978 -0.660887,-0.660887 -1.003169,-1.461744 -1.028945,-2.398075 l 0,-4.6166182 c 0,-0.311411 0.11659,-0.579362 0.34438,-0.802955 0.228988,-0.222693 0.499037,-0.332092 0.812546,-0.332092 0.31231,0 0.578164,0.109398 0.802056,0.332092 0.222692,0.223594 0.332991,0.491544 0.332991,0.802955 l 0,1.154829 3.426721,0 c 0.314708,0 0.579662,0.110299 0.802356,0.331792 0.223593,0.222693 0.332991,0.493042 0.332991,0.803255 0,0.314408 -0.109398,0.580261 -0.332991,0.802056 m 6.18776,-3.3413 c 0.222693,-0.2164 0.445387,-0.433998 0.670178,-0.646501 0.223592,-0.214301 0.447186,-0.428902 0.671976,-0.647399 0.148663,-0.135175 0.329095,-0.199915 0.533206,-0.188525 0.204112,0.01228 0.378249,0.08962 0.521516,0.237079 0.250568,0.256561 0.294926,0.554486 0.136073,0.890774 -0.152558,0.288633 -0.38874,0.427703 -0.705246,0.418412 l -1.735091,0.08572 c -0.006,-0.0063 -0.01738,-0.0114 -0.03297,-0.0114 -0.01738,0 -0.03506,-0.0084 -0.05155,-0.02697 -0.03597,-0.03387 -0.03806,-0.07313 -0.0081,-0.111197 m 3.357784,6.0960442 c 0.567975,0 1.027747,0.496939 1.027747,1.112268 0,0.613532 -0.459772,1.112569 -1.027747,1.112569 l -2.232029,0.0051 c -0.895856,0.003 -1.667041,-0.32281 -2.31444,-0.976203 -0.644403,-0.651596 -0.969301,-1.433271 -0.9702,-2.346524 -0.003,-0.910256 0.318604,-1.6940282 0.961808,-2.3495202 0.640205,-0.65789 1.409292,-0.985786 2.307259,-0.988783 l 1.08889,-0.0021 c 0.608136,-0.0021 1.124556,0.213401 1.550463,0.644402 0.429801,0.4319 0.643201,0.951618 0.643201,1.558854 0,0.2340832 -0.04947,0.4546792 -0.04947,0.4546792 -0.182238,0.971098 -0.766989,1.55166 -1.756671,1.741084 0,0 -0.07613,0.01349 -0.104004,0.01648 l -0.118689,0.01978 c 0,0 0.935132,-0.0021 0.993876,-0.0021" />
  <path
     style="fill:#354b7e"
     inkscape:connector-curvature="0"
     id="path30"
     d="m 28.323129,9.9018598 c 0.297923,0 0.554785,0.1082002 0.768187,0.3237002 0.212204,0.213401 0.320403,0.480454 0.320403,0.796061 0,0.303918 -0.105204,0.562878 -0.317405,0.780177 -0.212503,0.215499 -0.468166,0.326996 -0.766089,0.326996 -0.311412,0 -0.57217,-0.107299 -0.784373,-0.3237 -0.214601,-0.2146 -0.321901,-0.474459 -0.322801,-0.777479 0,-0.315307 0.104004,-0.582359 0.316507,-0.799958 0.215499,-0.215499 0.47416,-0.3257972 0.785571,-0.3257972" />
  <path
     style="fill:#ffffff;fill-opacity:1"
     inkscape:connector-curvature="0"
     id="path32"
     d="M 46.117622,10.843587 C 45.157911,9.8859738 43.938342,9.3785448 42.591692,9.3785448 l -0.718432,0 c -0.537103,0 -1.062816,0.06803 -1.574439,0.198116 -0.05334,-0.05575 -0.104015,-0.112394 -0.153453,-0.159751 -0.959711,-0.96001 -2.177389,-1.467139 -3.523831,-1.467139 -0.08143,0 -0.166002,0.0021 -0.250545,0.0063 -0.315457,-1.183598 -0.929916,-2.249709 -1.836125,-3.172253 l -0.0051,-0.0063 -0.0021,0 c -0.110313,-0.113295 -0.236099,-0.231984 -0.377327,-0.35577 -0.02268,-0.130978 -0.04741,-0.258659 -0.07835,-0.381546 0,-8.96e-4 -0.003,-0.0072 -0.003,-0.0072 C 33.830725,3.1320398 33.386388,2.3464688 32.755414,1.7011668 31.74625,0.66712582 30.448154,0.13182282 29.004693,0.14740882 l -0.0093,0 c -1.382309,0.01019 -2.639043,0.541297 -3.632921,1.53937198 l -0.0021,-0.0021 -1.641278,1.605011 c 0,0 -0.03087,0.03207 -0.04227,0.04226 -0.942314,-0.639008 -2.013521,-0.985486 -3.18873,-1.031943 -0.351575,-0.421709 -0.755899,-0.800857 -1.214474,-1.12156 l 0,-0.0021 -0.0051,-0.0042 c -1.088865,-0.77927498 -2.305437,-1.17430798 -3.614622,-1.17430798 -1.727897,0 -3.226806,0.621623 -4.45177,1.84538798 -0.164847,0.168144 -0.3237,0.348576 -0.471163,0.532006 -0.348277,-0.05545 -0.692657,-0.08662 -1.025648,-0.08662 l -1.156927,0 c -2.33903,0 -4.370246,0.845516 -6.0367,2.512569 C 0.845216,6.4682418 0,8.5054518 0,10.857071 l 0,2.272192 c 0,1.741385 0.61443,3.240294 1.825307,4.45177 1.213874,1.212376 2.709487,1.827705 4.45207,1.827705 1.727897,0 3.219614,-0.615329 4.434086,-1.827705 0.317405,-0.319803 0.597946,-0.662086 0.837123,-1.025948 0.113296,0.125883 0.230788,0.249667 0.350376,0.369257 1.684737,1.648471 3.710557,2.484396 6.028307,2.484396 l 1.151532,0 c 1.637081,0 3.065856,-0.562878 4.254553,-1.673049 1.444361,1.117365 3.129097,1.684438 5.014648,1.680242 0,0 1.385614,-0.0039 1.942499,-0.006 0.157656,1.031043 0.638107,1.967075 1.391608,2.731066 0.154662,0.154656 0.397133,0.46277 0.682467,0.662685 2.384737,1.645533 6.079559,0.453749 7.031176,-0.828731 1.716508,0.455577 3.861918,-0.447485 4.584849,-1.227961 0.653694,-0.706145 1.036138,-1.344253 1.264827,-2.156799 0.321601,-0.199915 0.61353,-0.431 0.87219,-0.688461 0.955813,-0.958811 1.462044,-2.179579 1.462044,-3.533123 0,-1.348748 -0.506231,-2.567118 -1.462044,-3.52503" />
  <path
     style="fill:#7ac041;fill-opacity:1"
     inkscape:connector-curvature="0"
     id="path34"
     d="M 45.456136,11.504773 C 44.676558,10.725496 43.685978,10.31218 42.591092,10.31218 l -0.718733,0 c -0.661786,0 -1.30409,0.115393 -1.90623,0.342282 -0.142356,-0.206208 -0.305119,-0.401028 -0.480454,-0.578464 -0.779278,-0.7792772 -1.7701,-1.1916942 -2.863933,-1.1916942 -0.332991,0 -0.668081,0.04227 -0.994868,0.125583 -0.178371,-1.361936 -0.766031,-2.562922 -1.75883,-3.574184 l -0.0082,-0.0063 c -0.171181,-0.17714 -0.373255,-0.355774 -0.591812,-0.529913 -0.01855,-0.221494 -0.05155,-0.433098 -0.101037,-0.623721 -0.198987,-0.747507 -0.561739,-1.393707 -1.07846,-1.922717 -0.829928,-0.847313 -1.894841,-1.288804 -3.08144,-1.273218 -1.156627,0.0081 -2.166091,0.436994 -2.996921,1.278314 l 0.0051,0 c -0.02576,0.01978 -0.05066,0.04226 -0.07223,0.06384 l -0.183445,0.179533 -0.556883,0.544296 -0.814345,0.794862 -0.0063,0.0072 -0.02788,0.02996 c -0.194799,0.210405 -0.360545,0.444488 -0.493622,0.691758 -1.017556,-0.95881 -2.24252,-1.447357 -3.644619,-1.447357 l -0.200813,0 c -0.354872,-0.498138 -0.782575,-0.934233 -1.285808,-1.287905 -0.925841,-0.663884 -1.96168,-1.00197098 -3.075147,-1.00197098 -1.472234,0 -2.747551,0.52900998 -3.787887,1.57324098 -0.280239,0.276344 -0.523613,0.583559 -0.733119,0.91655 -0.465768,-0.12978 -0.944124,-0.199915 -1.428774,-0.199915 l -1.155728,0 c -2.082468,0 -3.89099,0.752602 -5.377611,2.241321 -1.483624,1.482425 -2.238923,3.29784 -2.238923,5.3937962 l 0,2.272193 c 0,1.485721 0.524513,2.760139 1.552559,3.790883 1.031044,1.031044 2.307859,1.553759 3.792682,1.553759 1.473433,0 2.740358,-0.522715 3.773499,-1.553759 0.628817,-0.629716 1.069108,-1.355643 1.320575,-2.163992 0.325798,0.541297 0.72263,1.04543 1.187798,1.505203 1.496812,1.468038 3.302936,2.212548 5.367121,2.212548 l 1.152431,0 c 1.460845,0 2.733164,-0.527811 3.774398,-1.571143 0.143267,-0.144466 0.277244,-0.301221 0.407322,-0.463969 1.41229,1.357741 3.121605,2.046501 5.082686,2.040207 l 2.174184,-0.003 c 0.213413,0 0.433097,-0.01978 0.652494,-0.04855 -0.0061,0.07313 -0.0082,0.145365 -0.0082,0.211303 0,1.086792 0.408221,2.06928 1.179404,2.842563 0.780417,0.778377 1.767039,1.189596 2.851614,1.189596 1.50005,0 2.802162,-0.537101 3.867313,-1.596919 l 0.0051,-0.0072 0.0021,-0.0021 c 0,0 0.02026,-0.02367 0.03296,-0.03417 0.432798,0.154656 0.887474,0.236182 1.35564,0.236182 1.101181,0 2.090863,-0.408222 2.865043,-1.181505 0.579362,-0.582359 0.959711,-1.308285 1.11047,-2.105247 0.376152,-0.190623 0.724726,-0.439092 1.02475,-0.738215 0.777179,-0.780176 1.191693,-1.774054 1.191693,-2.874033 0,-1.094885 -0.414514,-2.085766 -1.191693,-2.863244" />
  <path
     style="fill:#c1d72d"
     inkscape:connector-curvature="0"
     id="path36"
     d="m 44.722416,12.235795 c -0.588655,-0.589853 -1.305291,-0.889874 -2.131024,-0.889874 l -0.718734,0 c -0.870989,0 -1.665854,0.23528 -2.369001,0.690859 -0.139372,-0.457676 -0.391736,-0.870094 -0.750504,-1.230059 -0.590841,-0.587456 -1.306336,-0.8874782 -2.132131,-0.8874782 -0.77838,0 -1.458806,0.2649562 -2.027918,0.7834742 0.0433,-0.267053 0.06392,-0.536203 0.06392,-0.8032552 l 0,-0.0111 c -0.003,-1.448556 -0.522686,-2.704391 -1.535084,-3.733337 l -0.001,0 c -0.258749,-0.270949 -0.55252,-0.514323 -0.868128,-0.725627 0.0012,-0.01439 0.0085,-0.135175 0.0085,-0.135175 0,-0.260758 -0.03296,-0.516421 -0.095,-0.760694 -0.151507,-0.566168 -0.427852,-1.057712 -0.818691,-1.457841 -0.633011,-0.649497 -1.418582,-0.9702 -2.324641,-0.961808 l -0.01049,0 c -0.877284,0.0081 -1.642175,0.336888 -2.276386,0.979192 l -1.608309,1.572341 -0.01648,0.01557 c -0.31531,0.341098 -0.51013,0.73703 -0.582363,1.180319 -0.209206,0.16185 -0.411518,0.340185 -0.601242,0.525712 -0.18643,-0.309313 -0.409124,-0.598844 -0.671081,-0.860801 -0.84132,-0.843418 -1.862772,-1.268124 -3.041279,-1.268124 l -0.76489,0 c -0.314409,-0.586556 -0.755899,-1.083495 -1.319675,-1.478228 -0.748407,-0.5392 -1.583732,-0.812547 -2.476304,-0.812547 -1.188697,0 -2.216743,0.425905 -3.058961,1.269323 -0.429801,0.4307 -0.7547,0.92674 -0.965105,1.475231 -0.586557,-0.302119 -1.232757,-0.453779 -1.925713,-0.453779 l -1.156628,0 c -1.795934,0 -3.356885,0.650697 -4.64569,1.936204 C 2.616577,7.4780018 1.96618,9.0470468 1.96618,10.857367 l 0,2.272193 c 0,1.200087 0.422608,2.229931 1.252838,3.059861 0.827233,0.829931 1.858276,1.249541 3.057764,1.249541 1.188697,0 2.212547,-0.41961 3.040379,-1.249541 0.84132,-0.841319 1.269921,-1.872063 1.269921,-3.059861 l 0,-0.342283 c 0.332992,-0.06504 0.652795,-0.169941 0.953716,-0.311411 0.277243,1.151532 0.860801,2.17838 1.743482,3.05057 1.297797,1.268124 2.858749,1.912526 4.643293,1.912526 l 1.151531,0 c 1.177608,0 2.202358,-0.425605 3.043378,-1.268123 0.442389,-0.441191 0.770285,-0.942326 0.983687,-1.489619 0.217597,0.309313 0.463969,0.607237 0.734918,0.882382 1.240249,1.254636 2.754745,1.887649 4.498227,1.883752 l 2.175381,-0.0063 c 0.897967,-0.0021 1.69493,-0.255664 2.381471,-0.746308 -0.04847,0.05755 -0.09588,0.114193 -0.14021,0.174138 -0.370094,0.516421 -0.558922,1.111369 -0.558922,1.769258 0,0.818541 0.296142,1.528883 0.876448,2.110343 0.588684,0.588654 1.301062,0.887476 2.119663,0.887476 1.21858,0 2.276358,-0.436994 3.141388,-1.301093 0.180334,-0.176236 0.342192,-0.370156 0.488755,-0.572169 0.478356,0.309313 1.026549,0.468166 1.632886,0.468166 0.832928,0 1.549563,-0.294926 2.131021,-0.876387 0.578465,-0.578463 0.87639,-1.282511 0.885679,-2.094757 0.469067,-0.140269 0.891674,-0.390837 1.249542,-0.748705 0.590753,-0.591651 0.890773,-1.311284 0.890773,-2.143312 0,-0.825733 -0.300012,-1.54117 -0.890773,-2.131922" />
  <path
     style="fill:#ffffff"
     d="m 27.194975,6.35645 c 0.01139,0.011389 0.02278,0.024577 0.02278,0.024577 0,0 1.808223,-0.08662 1.820511,-0.088418 0.389938,0.00929 0.692957,-0.1702421 0.880583,-0.521816 l 0.003,-0.00719 0.0021,-0.003 C 30.119962,5.3448884 30.059118,4.9585469 29.746808,4.6399424 29.570272,4.4562129 29.349676,4.3585035 29.091915,4.342918 28.833255,4.329431 28.605467,4.410056 28.411547,4.5850933 l -0.0051,0.0054 -1.353544,1.3040902 -0.01049,0.013488 c -0.03926,0.055449 -0.05875,0.1153929 -0.05875,0.1729396 0,0.072233 0.02997,0.1414687 0.08752,0.2002142 0.04046,0.044359 0.08362,0.06474 0.123785,0.07523"
     id="path40"
     inkscape:connector-curvature="0" />
  <path
     style="fill:#ffffff"
     d="m 9.704401,7.2286409 -1.156627,0 c -0.9866846,0 -1.8483852,0.3596663 -2.5578271,1.0691082 -0.7088424,0.710341 -1.0685088,1.5711425 -1.0685088,2.5599249 l 0,2.272192 c 0,0.36686 0.1348749,0.686663 0.4016275,0.953715 0.2667525,0.266753 0.587455,0.401928 0.9546144,0.401928 0.3659605,0 0.686663,-0.135175 0.9462222,-0.404026 0.2577608,-0.264954 0.3917366,-0.585656 0.3917366,-0.951617 l 0,-2.272192 c 0,-0.271248 0.089917,-0.493941 0.2733464,-0.677371 C 8.0745131,9.9965731 8.2921112,9.9048582 8.547774,9.9048582 l 1.156627,0 c 0.367159,0 0.684565,-0.1309785 0.944424,-0.3917366 0.260758,-0.2616573 0.392935,-0.5781636 0.392935,-0.9462222 0,-0.3650613 -0.132177,-0.6845649 -0.392935,-0.9456227 C 10.388966,7.3617175 10.07156,7.2286409 9.704401,7.2286409"
     id="path42"
     inkscape:connector-curvature="0" />
  <path
     style="fill:#ffffff"
     d="m 20.216549,7.2286409 -3.225008,0 0,-0.9516172 c 0,-0.3671594 -0.12978,-0.6845649 -0.393835,-0.945323 -0.259559,-0.261957 -0.577264,-0.3929355 -0.943225,-0.3929355 -0.36596,0 -0.685464,0.1309785 -0.954614,0.3908374 -0.264954,0.2607581 -0.402227,0.5802617 -0.402227,0.9474211 l 0,4.4134053 -0.0039,0 c 0,0 0.0039,0.201114 0.0039,0.20531 l 0,0.01139 c 0.02907,0.984587 0.392935,1.833999 1.086792,2.528754 0.698951,0.695955 1.55166,1.049627 2.542241,1.049627 l 1.151532,0 c 0.370157,0 0.68996,-0.135175 0.950718,-0.404026 0.256562,-0.264954 0.389639,-0.585656 0.389639,-0.951617 0,-0.367159 -0.133077,-0.684565 -0.393835,-0.945323 -0.25866,-0.261957 -0.578463,-0.392935 -0.946522,-0.392935 l -1.151532,0 c -0.59285,-0.03507 -0.881482,-0.306316 -0.935132,-0.911455 l 0,-0.9752948 3.225008,0 c 0.36596,0 0.686663,-0.1309785 0.945323,-0.3917366 0.260758,-0.2616573 0.391737,-0.5781636 0.391737,-0.9462222 0,-0.3650613 -0.130979,-0.6845649 -0.391737,-0.9456227 -0.25866,-0.2595592 -0.579363,-0.3926358 -0.945323,-0.3926358"
     id="path44"
     inkscape:connector-curvature="0" />
  <path
     style="fill:#ffffff"
     d="m 31.812192,13.342669 0,-0.184329 c 0,0 -0.01559,-0.02488 -0.01738,-0.03297 0,-0.0033 -0.0021,-0.177435 -0.0021,-0.177435 0,0 -0.01049,-0.0093 -0.01768,-0.01738 l 0,-0.123785 c 0,0 -0.02458,-0.0051 -0.03507,-0.0093 l 0,-0.04226 c 0,0 -0.01948,-0.01768 -0.03387,-0.03507 l 0,-0.03507 -0.05874,-0.05994 c -0.119589,-0.229886 -0.305117,-0.417512 -0.548491,-0.555684 -0.0033,0 -0.06414,-0.06264 -0.06414,-0.06264 0,0 -0.01948,0.0018 -0.03687,0.0018 -0.01439,-0.01828 -0.03297,-0.03597 -0.03297,-0.03597 l -0.08662,0 c -0.01978,-0.0072 -0.03716,-0.01019 -0.05695,-0.01019 -0.02038,-0.01259 -0.04406,-0.01558 -0.06894,-0.01978 0.524813,-0.325798 0.857804,-0.840121 0.99178,-1.540271 0.01229,-0.01139 0.02578,-0.02458 0.02578,-0.02458 0,0 -0.0021,-0.137273 -0.0021,-0.141169 0.01049,-0.02698 0.01648,-0.05994 0.01648,-0.09711 l 0,-0.05365 0.0051,-0.05665 0.01349,-0.1360742 C 31.800802,9.2322821 31.563722,8.662211 31.101851,8.1931461 30.635783,7.7240813 30.066911,7.4879004 29.403926,7.4879004 l -1.087691,0.0033 c -0.94862,0.0018 -1.773155,0.3545711 -2.451726,1.0484274 -0.67827,0.6905594 -1.021452,1.5297812 -1.017556,2.4918882 0,0.962707 0.347378,1.801029 1.028946,2.48949 0.681568,0.687862 1.510299,1.038237 2.455921,1.034341 l 2.175083,-0.0033 c 0.438193,-0.0021 0.778378,-0.182531 1.022951,-0.530808 l 0.110297,0 0,-0.03417 0.01738,0 0,-0.05245 0.03297,0 0,-0.08782 0.03627,0 0,-0.136074 c 0,-0.0018 0,-0.0018 8.99e-4,-0.0039 l 0.04856,0 0,-0.190923 c 0.0072,-0.0072 0.01858,-0.01648 0.01858,-0.01648 l 0,-0.139071 0.01738,-0.01768"
     id="path46"
     inkscape:connector-curvature="0" />
  <path
     style="fill:#19388a"
     inkscape:connector-curvature="0"
     id="path48"
     d="M 44.098995,12.858917 C 43.679384,12.439306 43.17735,12.230999 42.591692,12.230999 l -0.718731,0 c -0.972,0 -1.810321,0.347378 -2.507176,1.04543 -0.326996,0.326697 -0.576366,0.685464 -0.748527,1.076302 -0.04227,-0.110298 -0.09174,-0.219696 -0.15052,-0.3237 0.194848,-0.34438 0.289702,-0.708243 0.289702,-1.090688 0,-0.584757 -0.209301,-1.086792 -0.629928,-1.504304 -0.417543,-0.421709 -0.920654,-0.630915 -1.505203,-0.630915 -0.592791,0 -1.097972,0.209207 -1.517584,0.630915 -0.412357,0.411518 -0.618564,0.912353 -0.618564,1.504304 0,0.406123 0.10205,0.767887 0.303108,1.090688 -0.201046,0.330894 -0.303108,0.694756 -0.303108,1.091887 l 0,1.506103 c -0.411339,0.143267 -0.749515,0.395933 -1.011383,0.758896 -0.262882,0.364761 -0.392786,0.780177 -0.392786,1.253438 0,0.577563 0.205158,1.072404 0.61653,1.484822 0.419582,0.419311 0.918586,0.629716 1.494892,0.629716 0.982488,0 1.82273,-0.347378 2.518623,-1.04633 0.427853,-0.415414 0.721673,-0.888675 0.887659,-1.414388 0.08971,0.153456 0.203011,0.300923 0.339075,0.436995 0.412418,0.413317 0.919847,0.617428 1.51779,0.617428 0.592551,0 1.097881,-0.204112 1.507303,-0.617428 0.419312,-0.420509 0.628816,-0.92674 0.628816,-1.518691 l 0,-0.708243 c 0.593749,0 1.094885,-0.207108 1.507303,-0.619525 0.420509,-0.417513 0.629716,-0.924643 0.629716,-1.515394 0,-0.586856 -0.20921,-1.087691 -0.629716,-1.5094" />
  <path
     style="fill:#ec4f8f"
     inkscape:connector-curvature="0"
     id="path50"
     d="m 35.913364,17.211179 c 0,0.369257 -0.172169,0.597047 -0.516512,0.686663 -0.0433,0.01557 -0.113389,0.02697 -0.20413,0.03417 -0.179366,0 -0.343299,0.06684 -0.487647,0.202014 -0.148464,0.136072 -0.219612,0.303019 -0.219612,0.504132 0,0.195718 0.06909,0.363863 0.206217,0.501135 0.13915,0.13997 0.306194,0.209207 0.501042,0.209207 0.57115,0 1.066022,-0.203211 1.485602,-0.607237 0.425786,-0.412417 0.644373,-0.903062 0.649528,-1.474332 l 0,-2.147508 c 0,-0.202013 -0.067,-0.373154 -0.206217,-0.509227 -0.138153,-0.14027 -0.306195,-0.209207 -0.500026,-0.209207 -0.187621,0 -0.351545,0.06684 -0.493822,0.202013 -0.143294,0.133978 -0.214441,0.300021 -0.214441,0.493642 z" />
  <path
     style="fill:#78bde6"
     inkscape:connector-curvature="0"
     id="path52"
     d="m 41.164117,15.795293 c 0,-0.203211 0.07012,-0.373154 0.208303,-0.510426 0.137881,-0.141168 0.306016,-0.209207 0.500837,-0.209207 l 0.718731,0 c 0.194817,0 0.363863,-0.07014 0.500837,-0.209208 0.139362,-0.136072 0.208302,-0.303318 0.208302,-0.499037 0,-0.194819 -0.06894,-0.360865 -0.208302,-0.501135 -0.136974,-0.139071 -0.306017,-0.208305 -0.500837,-0.208305 l -0.718731,0 c -0.58356,0 -1.086492,0.210404 -1.506104,0.630914 -0.419611,0.419611 -0.630916,0.922845 -0.630916,1.506402 l 0,1.416487 c 0,0.19482 0.07015,0.362963 0.214289,0.50623 0.143263,0.143266 0.312313,0.214302 0.506232,0.214302 0.19391,0 0.360863,-0.07103 0.499936,-0.214302 0.139362,-0.143266 0.207396,-0.311411 0.207396,-0.50623 z" />
  <path
     style="fill:#ffcf3b"
     inkscape:connector-curvature="0"
     id="path54"
     d="m 37.510746,14.092872 -0.840241,-0.45258 -0.846416,0.437295 0.17217,-0.93843 -0.676321,-0.673175 0.944363,-0.126785 0.426835,-0.851509 0.415475,0.858702 0.943313,0.146566 -0.691757,0.658789 z" />
  <path
     style="fill:#19388a"
     inkscape:connector-curvature="0"
     id="path56"
     d="m 33.415344,11.677413 c 0.240227,-0.573368 0.359818,-1.170415 0.35775,-1.7878422 -0.0021,-1.215373 -0.430941,-2.254808 -1.28263,-3.119806 -0.360867,-0.373154 -0.756498,-0.664783 -1.187499,-0.879384 0.09262,-0.37735 0.101899,-0.772084 0.0082,-1.13175 -0.111308,-0.417812 -0.309421,-0.772384 -0.595954,-1.066111 -0.460673,-0.471163 -1.025649,-0.703148 -1.688634,-0.693856 -0.646501,0.003 -1.204283,0.245472 -1.67125,0.725926 l -1.585529,1.550462 -0.01049,0.0081 c -0.232882,0.250568 -0.359666,0.545494 -0.37615,0.882681 -0.0042,0.05755 -0.0042,0.111196 0,0.166046 -0.328797,0.215189 -0.637212,0.475048 -0.930939,0.774171 -0.327895,0.335092 -0.605137,0.689663 -0.829929,1.064016 -0.08242,-0.770285 -0.412418,-1.442562 -0.989682,-2.018627 -0.671077,-0.673176 -1.478528,-1.009464 -2.415758,-1.009464 l -1.334962,0 c -0.240078,-0.676172 -0.660887,-1.220468 -1.26183,-1.642176 -0.601242,-0.433099 -1.256734,-0.648599 -1.964977,-0.648599 -0.950718,0 -1.762065,0.335989 -2.434042,1.010363 -0.65789,0.65789 -0.988783,1.459946 -0.992979,2.40407 -0.03507,-0.03896 -0.07013,-0.07823 -0.1073,-0.114194 -0.674075,-0.673176 -1.480327,-1.009464 -2.416358,-1.009464 l -1.156927,0 c -1.559753,0 -2.900709,0.558682 -4.018672,1.676345 -1.12096,1.118563 -1.678443,2.464014 -1.678443,4.0393532 l 0,2.272193 c 0,0.961807 0.329694,1.773155 0.99208,2.43524 0.662385,0.659688 1.474632,0.992679 2.434941,0.992679 0.94862,0 1.754572,-0.332991 2.415459,-0.992679 0.672277,-0.673175 1.011562,-1.485722 1.011562,-2.43524 l 0,-1.135047 c 0.949519,0 1.753672,-0.330894 2.416358,-0.992679 0.03716,-0.03627 0.07223,-0.07553 0.107299,-0.112398 l 0,0.0039 c 0.0114,1.576538 0.570071,2.909401 1.676345,4.004286 1.13205,1.106273 2.472406,1.65986 4.022867,1.65986 l 1.151532,0 c 0.939329,0 1.745281,-0.338985 2.418757,-1.011262 0.671977,-0.674374 1.008265,-1.478528 1.008265,-2.416658 0,-0.600943 -0.149562,-1.159924 -0.450483,-1.677244 0.310213,-0.201113 0.577264,-0.440292 0.808051,-0.717535 -0.0051,0.09891 -0.0081,0.200814 -0.0081,0.30182 0.0042,1.518691 0.542197,2.820983 1.614303,3.905377 1.073304,1.085593 2.364206,1.624792 3.868211,1.620597 l 2.174482,-0.0051 c 0.91835,-0.0021 1.695828,-0.324599 2.324674,-0.969001 0.633015,-0.6465 0.946434,-1.436268 0.945385,-2.370201 -0.003,-0.538301 -0.1237,-1.050526 -0.367011,-1.541171 M 10.505199,9.3689538 c -0.221495,0.223593 -0.490645,0.335089 -0.800857,0.335089 l -1.156927,0 c -0.31231,0 -0.578164,0.110299 -0.800857,0.3329922 -0.221794,0.222693 -0.332991,0.495739 -0.332991,0.820638 l 0,2.272193 c 0,0.313509 -0.111496,0.584457 -0.335089,0.812546 -0.221795,0.227788 -0.487648,0.342283 -0.801157,0.342283 -0.31231,0 -0.58266,-0.114496 -0.810448,-0.342283 -0.230786,-0.228089 -0.34468,-0.499037 -0.34468,-0.812546 l 0,-2.272193 c 0,-0.9393292 0.338685,-1.7434822 1.009763,-2.4166592 0.674374,-0.671976 1.480327,-1.009163 2.415459,-1.009163 l 1.156927,0 c 0.310212,0 0.579362,0.110299 0.800857,0.331792 0.223893,0.222693 0.334189,0.493043 0.334189,0.803255 0,0.314408 -0.110298,0.580262 -0.334189,0.802056 m 10.513946,0 c -0.222693,0.223593 -0.487648,0.335089 -0.802356,0.335089 l -3.426721,0 0,1.1895972 c 0.06084,0.710341 0.441191,1.064013 1.137146,1.064013 l 1.151531,0.03716 c 0.315607,0 0.581461,0.110299 0.805053,0.332092 0.221795,0.222692 0.332991,0.489446 0.332991,0.802955 0,0.313509 -0.111197,0.584458 -0.332991,0.812546 -0.223594,0.227788 -0.489446,0.342283 -0.805053,0.342283 l -1.151531,0 c -0.939329,10e-7 -1.738088,-0.331191 -2.400174,-0.992978 -0.660887,-0.660887 -1.003169,-1.461744 -1.028945,-2.398075 l 0,-4.6166182 c 0,-0.311411 0.11659,-0.579362 0.34438,-0.802955 0.228988,-0.222693 0.499037,-0.332092 0.812546,-0.332092 0.31231,0 0.578164,0.109398 0.802056,0.332092 0.222692,0.223594 0.332991,0.491544 0.332991,0.802955 l 0,1.154829 3.426721,0 c 0.314708,0 0.579662,0.110299 0.802356,0.331792 0.223593,0.222693 0.332991,0.493042 0.332991,0.803255 0,0.314408 -0.109398,0.580261 -0.332991,0.802056 m 6.18776,-3.3413 c 0.222693,-0.2164 0.445387,-0.433998 0.670178,-0.646501 0.223592,-0.214301 0.447186,-0.428902 0.671976,-0.647399 0.148663,-0.135175 0.329095,-0.199915 0.533206,-0.188525 0.204112,0.01228 0.378249,0.08962 0.521516,0.237079 0.250568,0.256561 0.294926,0.554486 0.136073,0.890774 -0.152558,0.288633 -0.38874,0.427703 -0.705246,0.418412 l -1.735091,0.08572 c -0.006,-0.0063 -0.01738,-0.0114 -0.03297,-0.0114 -0.01738,0 -0.03506,-0.0084 -0.05155,-0.02697 -0.03597,-0.03387 -0.03806,-0.07313 -0.0081,-0.111197 m 3.357784,6.0960442 c 0.567975,0 1.027747,0.496939 1.027747,1.112268 0,0.613532 -0.459772,1.112569 -1.027747,1.112569 l -2.232029,0.0051 c -0.895856,0.003 -1.667041,-0.32281 -2.31444,-0.976203 -0.644403,-0.651596 -0.969301,-1.433271 -0.9702,-2.346524 -0.003,-0.910256 0.318604,-1.6940282 0.961808,-2.3495202 0.640205,-0.65789 1.409292,-0.985786 2.307259,-0.988783 l 1.08889,-0.0021 c 0.608136,-0.0021 1.124556,0.213401 1.550463,0.644402 0.429801,0.4319 0.643201,0.951618 0.643201,1.558854 0,0.2340832 -0.04947,0.4546792 -0.04947,0.4546792 -0.182238,0.971098 -0.766989,1.55166 -1.756671,1.741084 0,0 -0.07613,0.01349 -0.104004,0.01648 l -0.118689,0.01978 c 0,0 0.935132,-0.0021 0.993876,-0.0021" />
  <path
     style="fill:#19388a"
     inkscape:connector-curvature="0"
     id="path58"
     d="m 28.323129,9.9018598 c 0.297923,0 0.554785,0.1082002 0.768187,0.3237002 0.212204,0.213401 0.320403,0.480454 0.320403,0.796061 0,0.303918 -0.105204,0.562878 -0.317405,0.780177 -0.212503,0.215499 -0.468166,0.326996 -0.766089,0.326996 -0.311412,0 -0.57217,-0.107299 -0.784373,-0.3237 -0.214601,-0.2146 -0.321901,-0.474459 -0.322801,-0.777479 0,-0.315307 0.104004,-0.582359 0.316507,-0.799958 0.215499,-0.215499 0.47416,-0.3257972 0.785571,-0.3257972" />
  <path
     class="cls-2"
     d="m 28.257847,22.848162 c 0.02575,-1.740891 -1.529292,-3.165842 -3.459758,-3.170331 l -16.0961994,0 c -1.9304665,0.0045 -3.4857684,1.429439 -3.4600223,3.170331 l 2.643e-4,3.086902 c 1.476e-4,1.724634 1.5474908,3.124018 3.459758,3.128617 l 16.0961994,0 c 1.912267,-0.0046 3.459764,-1.403982 3.459758,-3.128617 z"
     id="path11-0"
     inkscape:connector-curvature="0"
     style="fill:#7ac041;fill-opacity:1"
     sodipodi:nodetypes="ccccsccsc" />
  <g
     id="g4417"
     transform="translate(-0.73562233,0.75139346)">
    <path
       d="m 8.4950693,21.929528 c 0,-0.23344 0.229279,-0.42782 0.459389,-0.39792 0.534153,-0.004 1.0824287,-0.0806 1.6074437,0.054 0.747649,0.20685 1.258542,1.01015 1.126457,1.77525 -0.04984,0.47102 -0.359702,0.86395 -0.730203,1.13809 0.18442,0.18109 0.388777,0.34558 0.550768,0.54827 0.206849,0.27414 -0.04403,0.72024 -0.384624,0.69365 -0.234263,-8.3e-4 -0.378809,-0.21266 -0.536646,-0.35388 -0.235094,-0.21516 -0.435297,-0.47185 -0.6969737,-0.65461 -0.167806,-0.0133 -0.335611,-0.005 -0.503417,-0.002 8.31e-4,0.23011 0.01744,0.46105 -0.0066,0.69033 -0.06895,0.33228 -0.545783,0.44443 -0.762601,0.18857 -0.147038,-0.13126 -0.11547,-0.34143 -0.120455,-0.51754 0.01246,-1.05418 -0.01994,-2.10837 -0.0025,-3.16172 m 0.893856,0.48265 c 0.0033,0.47268 0.0017,0.94452 8.3e-4,1.4172 0.397085,-0.0332 0.8747487,0.11797 1.1970687,-0.19023 0.312351,-0.26998 0.292413,-0.79915 -0.02741,-1.05502 -0.324812,-0.27829 -0.7825387,-0.14371 -1.1704847,-0.17195 z"
       id="path13-3"
       inkscape:connector-curvature="0"
       style="opacity:1;fill:#ffffff" />
    <path
       d="m 13.667967,21.661198 c 0.295736,-0.14288 0.63467,-0.15368 0.955328,-0.1163 0.713589,0.098 1.312539,0.74516 1.321677,1.47121 0.01495,0.77672 0.01828,1.55428 0.0025,2.331 -0.03738,0.39875 -0.641316,0.50508 -0.814106,0.14538 -0.09886,-0.30571 -0.02492,-0.64215 -0.04569,-0.96032 -0.490956,0.002 -0.981081,-0.002 -1.471206,0.004 -0.02908,0.33893 0.112147,0.741 -0.110486,1.03425 -0.21931,0.28992 -0.753464,0.13125 -0.764263,-0.23427 -0.01246,-0.74598 -0.0017,-1.4928 -0.0042,-2.23879 0.0017,-0.60476 0.378809,-1.18793 0.930408,-1.43632 m 0.169467,0.91961 c -0.311521,0.27331 -0.21848,0.72356 -0.229279,1.09074 0.492617,0.002 0.985234,-0.01 1.477852,-0.003 -0.01329,-0.34475 0.0731,-0.74848 -0.182759,-1.02927 -0.260015,-0.31235 -0.775062,-0.34807 -1.065814,-0.0581 z"
       id="path15"
       inkscape:connector-curvature="0"
       style="opacity:1;fill:#ffffff" />
    <path
       d="m 17.295723,21.552378 c 0.422838,-0.10218 0.869765,-0.0224 1.302571,-0.0482 0.605595,-0.0291 1.206207,0.32398 1.46456,0.87392 0.186082,0.35056 0.142053,0.75844 0.144545,1.14058 -0.0058,0.30321 0.01578,0.60725 -0.01329,0.90963 -0.09969,0.68618 -0.721065,1.27184 -1.420532,1.29261 -0.420345,0.008 -0.839859,0.003 -1.259373,0.003 -0.250878,0.0224 -0.494278,-0.20519 -0.469357,-0.46022 0.0025,-1.08326 -0.01163,-2.16735 -0.0075,-3.25144 -0.01994,-0.18941 0.0839,-0.38047 0.258353,-0.46022 m 0.631349,0.8598 c 0.005,0.8033 0.02908,1.60578 0.01661,2.40825 0.38047,-0.039 0.831552,0.11547 1.155532,-0.14454 0.315674,-0.26915 0.175283,-0.72107 0.201865,-1.07994 -0.02492,-0.33893 0.09803,-0.75761 -0.184419,-1.01846 -0.326474,-0.28577 -0.796662,-0.12793 -1.189592,-0.16531 z"
       id="path17"
       inkscape:connector-curvature="0"
       style="opacity:1;fill:#ffffff" />
    <path
       d="m 21.534061,21.559858 c 0.270814,-0.17529 0.665407,0.0615 0.657931,0.37714 8.3e-4,1.10818 0.01246,2.21637 0.01,3.32455 0.01662,0.24257 -0.200203,0.46354 -0.441943,0.45772 -0.247555,0.0108 -0.469358,-0.21515 -0.451912,-0.46354 -0.0091,-1.07744 0.0075,-2.15655 -0.01,-3.23399 -0.01744,-0.18442 0.06895,-0.37383 0.235925,-0.46188 z"
       id="path19"
       inkscape:connector-curvature="0"
       style="opacity:1;fill:#ffffff" />
    <path
       d="m 24.363495,21.568988 c 0.711097,-0.23758 1.568401,0.0681 1.927273,0.73602 0.240077,0.38878 0.182757,0.85814 0.187742,1.2926 -0.01,0.35971 0.0432,0.73436 -0.09304,1.07745 -0.220973,0.63301 -0.880565,1.07246 -1.550125,1.03508 -0.785862,0.006 -1.524373,-0.64797 -1.557602,-1.44297 -0.01329,-0.41868 -0.0083,-0.83736 -0.0042,-1.25604 0.01578,-0.64547 0.471019,-1.25356 1.089906,-1.44214 m 0.251709,0.82989 c -0.254201,0.0964 -0.465204,0.33894 -0.471019,0.61889 -0.0066,0.38629 -0.0066,0.77257 0,1.15969 0.0091,0.4436 0.511724,0.77506 0.927915,0.64796 0.319828,-0.0822 0.563229,-0.39625 0.542461,-0.7302 0,-0.38546 0.0216,-0.77174 -0.01246,-1.15554 -0.07975,-0.4328 -0.580674,-0.69531 -0.986896,-0.5408 z"
       id="path21"
       inkscape:connector-curvature="0"
       style="opacity:1;fill:#ffffff" />
  </g>
</svg>
