<svg height="21.299999" viewBox="-283 374 36.799999 21.299999" width="36.799999" xmlns="http://www.w3.org/2000/svg"><g fill="#fff" transform="translate(-3.7 -9.8)"><path d="m-279.3 404.8c.1-1.1.4-1.9 1.1-2.5s1.7-1 3.3-1.3c.3-.1.7-.1 1.3-.2 1.2-.2 1.8-.4 1.8-.7 0-.2-.1-.3-.4-.4-.2-.1-.6-.1-1.1-.1-.7 0-1.1.1-1.4.2-.3.2-.5.4-.5.7h-3.7c0-.9.5-1.6 1.4-2s2.2-.7 3.9-.7c1.8 0 3.1.2 4 .6s1.3.9 1.3 1.7c0 .6-.2 1-.7 1.3-.4.3-1.2.6-2.3.8-.4.1-.9.1-1.6.2-1.5.2-2.4.4-2.7.7h7v1.7z"/><path d="m-252.9 404.8v-7h4l1.2 4.3 1.2-4.3h4v7h-2.5v-5.5l-1.7 5.5h-2.1l-1.6-5.5v5.5z"/><path d="m-267.6 399.6s3.3 1.4 4.1 1.7c-.8.3-4.1 1.7-4.1 1.7v2.1l6.6-2.7v-2.1l-6.6-2.8zm13.9-2.2-6.6 2.7v2.1l6.6 2.7v-2.1s-3.3-1.4-4.1-1.7c.8-.3 4.1-1.7 4.1-1.7z"/></g><g fill="#fff" transform="translate(-3.7 -9.8)"><path d="m-252.4 392.6c-1.5 0-2.7-1.1-3-2.6h2.8c.3 0 1 .1 1 .1v-1.2s-.7 0-1 0h-2.8c.3-1.5 1.5-2.5 3-2.5.8 0 1.7.4 1.7.4v-1.3s-.7-.3-1.7-.3c-2.5 0-4.6 1.9-4.6 4.3 0 2.6 2.2 4.4 4.6 4.4 1.2 0 1.9-.3 1.9-.3v-1.4c-.1 0-.9.4-1.9.4"/><path d="m-260.8 393.9s.1-.6.1-1.2v-6h-.4c-.6 0-1.4 0-2 .1l-.1-1.4h6.6v1.4c-.7-.1-1.5-.1-2.1-.1h-.5v6c0 .6.1 1.2.1 1.2z"/><path d="m-250.6 384.7c-.5-.1-1.1-.2-1.6-.2-1.4 0-2.7.4-3.7 1.4v-1c1.1-.7 2.3-1.1 3.7-1.1.6 0 1.1.1 1.7.2z"/><path d="m-267.1 389.5h-1.2v-3.1h1.3.3c1.1.1 1.6.7 1.6 1.5s-.7 1.5-1.6 1.6c-.2 0-.3 0-.4 0m3.3 3.2-2.3-2.2c1.4-.1 2.6-1.2 2.6-2.5 0-1.4-.8-2.7-3.3-2.8-.1 0-.2 0-.3 0-1.7 0-2.9.1-2.9.1s.1.8.1 1.3v6.2c0 .6-.1 1.2-.1 1.2h1.7s-.1-.6-.1-1.3v-2.5l1.6 1.7.8.8c.5.5 1.4 1.3 1.4 1.3h2.3c0-.1-1-.8-1.5-1.3"/></g></svg>