<?xml version="1.0" encoding="UTF-8" standalone="no"?>
<svg
   xmlns:dc="http://purl.org/dc/elements/1.1/"
   xmlns:cc="http://creativecommons.org/ns#"
   xmlns:rdf="http://www.w3.org/1999/02/22-rdf-syntax-ns#"
   xmlns:svg="http://www.w3.org/2000/svg"
   xmlns="http://www.w3.org/2000/svg"
   xmlns:sodipodi="http://sodipodi.sourceforge.net/DTD/sodipodi-0.dtd"
   xmlns:inkscape="http://www.inkscape.org/namespaces/inkscape"
   width="40.829666pt"
   height="30.4pt"
   viewBox="0 0 40.829666 30.4"
   version="1.1"
   id="svg2"
   inkscape:version="0.91 r13725"
   sodipodi:docname="RTE Chill - Dark.svg">
  <metadata
     id="metadata37">
    <rdf:RDF>
      <cc:Work
         rdf:about="">
        <dc:format>image/svg+xml</dc:format>
        <dc:type
           rdf:resource="http://purl.org/dc/dcmitype/StillImage" />
        <dc:title></dc:title>
      </cc:Work>
    </rdf:RDF>
  </metadata>
  <defs
     id="defs35" />
  <sodipodi:namedview
     pagecolor="#ffffff"
     bordercolor="#666666"
     borderopacity="1"
     objecttolerance="10"
     gridtolerance="10"
     guidetolerance="10"
     inkscape:pageopacity="0"
     inkscape:pageshadow="2"
     inkscape:window-width="1920"
     inkscape:window-height="1017"
     id="namedview33"
     showgrid="false"
     fit-margin-top="0"
     fit-margin-left="0"
     fit-margin-right="0"
     fit-margin-bottom="0"
     inkscape:zoom="6.3015384"
     inkscape:cx="59.900383"
     inkscape:cy="-2.2451178"
     inkscape:window-x="-8"
     inkscape:window-y="-8"
     inkscape:window-maximized="1"
     inkscape:current-layer="svg2" />
  <g
     id="#ffffffff"
     transform="translate(-245.31381,-89.853736)" />
  <g
     id="g4212"
     transform="translate(-245.31381,-89.853736)"
     style="fill:#e51937;fill-opacity:1">
    <g
       transform="matrix(0.12661151,0,0,0.12661151,214.25427,105.02823)"
       id="#79c5aaff"
       style="fill:#e51937;fill-opacity:1">
      <path
         sodipodi:nodetypes="ccccc"
         style="opacity:1;fill:#e51937;fill-opacity:1"
         inkscape:connector-curvature="0"
         id="path6"
         d="m 445.5,12.4296 0,-5.9096 18.24,0 0,5.9096 z" />
    </g>
    <path
       sodipodi:nodetypes="cccccccccccccc"
       d="m 257.96309,106.07657 2.32079,0.004 0.004,4.49091 c 1.25598,-1.85739 4.15032,-2.1372 5.82286,-0.69763 1.04455,0.8445 1.60797,2.18405 1.62569,3.51347 0,2.18279 -0.004,4.37438 0.001,6.55716 l -2.35244,0 c 0.003,-2.05617 0,-4.11989 0.003,-6.17732 0.0101,-0.89768 -0.40642,-1.89664 -1.28764,-2.24736 -0.98251,-0.39376 -2.23216,-0.30893 -3.03361,0.43175 -0.5305,0.49125 -0.78246,1.22813 -0.77993,1.93969 l 10e-4,6.05324 -2.33092,0 z"
       id="path9"
       inkscape:connector-curvature="0"
       style="opacity:1;fill:#e51937;fill-opacity:1" />
    <path
       sodipodi:nodetypes="cccccccccc"
       d="m 275.95585,106.07657 2.32079,0.005 c 0.0139,3.31849 -10e-4,6.63824 0.009,9.95799 0.0152,0.52924 0.16586,1.11039 0.60774,1.44591 0.49505,0.35957 1.05594,0.6128 1.56998,0.94325 l -0.98504,1.77383 c -0.38996,-0.0329 -0.71155,-0.27601 -1.05214,-0.44314 -0.85589,-0.4596 -1.73331,-1.04075 -2.14986,-1.95615 -0.28994,-0.58621 -0.32919,-1.25219 -0.32539,-1.89537 0.005,-3.27797 -0.005,-6.55468 0.005,-9.83139 z"
       id="path11"
       inkscape:connector-curvature="0"
       style="opacity:1;fill:#e51937;fill-opacity:1" />
    <path
       sodipodi:nodetypes="ccccccccc"
       d="m 281.68249,106.07531 2.30686,0 c 0.004,3.23872 0,6.47871 0.003,9.7187 0.0329,0.59507 0.11395,1.27877 0.61787,1.6738 0.47859,0.35198 1.01289,0.6204 1.53326,0.90274 l -0.96098,1.86626 c -0.81917,-0.31273 -1.59277,-0.75967 -2.28407,-1.29904 -0.79385,-0.62546 -1.21547,-1.63455 -1.21167,-2.63478 -0.008,-3.40965 -0.003,-6.81803 -0.004,-10.22768 z"
       id="path13"
       inkscape:connector-curvature="0"
       style="opacity:1;fill:#e51937;fill-opacity:1" />
    <path
       sodipodi:nodetypes="ccccc"
       d="m 270.65969,107.75159 2.3094,0 0,0.76737 -2.3094,0 z"
       id="path17"
       inkscape:connector-curvature="0"
       style="opacity:1;fill:#e51937;fill-opacity:1" />
    <path
       sodipodi:nodetypes="cccccccccccccc"
       d="m 247.42142,110.20791 c 1.20281,-0.97238 2.79684,-1.34335 4.31998,-1.22687 1.75484,0.0734 3.33242,1.13697 4.29213,2.57275 l -2.02832,1.2218 c -0.40389,-0.56849 -0.89514,-1.10658 -1.55352,-1.37627 -1.32056,-0.54949 -2.9741,-0.1418 -3.87938,0.96858 -1.11164,1.29903 -1.05087,3.42484 0.15194,4.64538 1.09519,1.18635 3.11717,1.41805 4.39848,0.40262 0.35325,-0.26335 0.62293,-0.6166 0.87362,-0.97364 l 2.03845,1.22053 c -0.96605,1.49022 -2.65378,2.46766 -4.42508,2.57781 -1.39905,0.0861 -2.86015,-0.24815 -3.99965,-1.08885 -1.35095,-0.97365 -2.20811,-2.58415 -2.28661,-4.24402 -0.10762,-1.78143 0.6913,-3.59704 2.09796,-4.69982 z"
       id="path19"
       inkscape:connector-curvature="0"
       style="opacity:1;fill:#e51937;fill-opacity:1" />
    <path
       sodipodi:nodetypes="ccccc"
       d="m 270.65969,109.24693 2.3094,0 0.006,10.69735 -2.31699,0 z"
       id="path21"
       inkscape:connector-curvature="0"
       style="opacity:1;fill:#e51937;fill-opacity:1" />
    <g
       transform="matrix(0.12661151,0,0,0.12661151,214.25427,105.02823)"
       id="#04a678ff"
       style="fill:#e51937;fill-opacity:1">
      <path
         sodipodi:nodetypes="ccccc"
         style="opacity:1;fill:#e51937;fill-opacity:1"
         inkscape:connector-curvature="0"
         id="path24"
         d="m 445.5,14.1904 18.24,0 0,5.7392 -18.24,0 z" />
    </g>
  </g>
  <g
     id="RTE"
     style="fill:#e51937;fill-opacity:1"
     transform="matrix(1.254902,0,0,1.254902,347.00308,-481.63139)">
    <g
       class="st0"
       id="g53"
       style="display:none;fill:#e51937;fill-opacity:1">
      <path
         class="st4"
         d="m -254.5,392.1 c -1.1,0 -2.1,-0.8 -2.2,-1.9 l 2.1,0 c 0.2,0 0.7,0.1 0.7,0.1 l 0,-0.9 c 0,0 -0.5,0 -0.8,0 l -2.1,0 c 0.2,-1.1 1.1,-1.9 2.2,-1.9 0.6,0 1.3,0.3 1.3,0.3 l 0,-1 c 0,0 -0.5,-0.2 -1.3,-0.2 -1.9,0 -3.5,1.4 -3.5,3.2 0,2 1.6,3.3 3.5,3.3 0.9,0 1.4,-0.2 1.4,-0.2 l 0,-1 c 0.1,-0.1 -0.5,0.2 -1.3,0.2"
         id="path55"
         style="display:inline;fill:#e51937;fill-opacity:1"
         inkscape:connector-curvature="0" />
      <path
         class="st4"
         d="m -260.8,393 c 0,0 0.1,-0.5 0.1,-0.9 l 0,-4.5 -0.3,0 c -0.4,0 -1.1,0 -1.5,0 l 0,-1 5,0 0,1 c -0.5,0 -1.1,0 -1.6,0 l -0.4,0 0,4.5 c 0,0.4 0.1,0.9 0.1,0.9 l -1.4,0 z"
         id="path57"
         style="display:inline;fill:#e51937;fill-opacity:1"
         inkscape:connector-curvature="0" />
      <path
         class="st4"
         d="m -253.1,386.1 c -0.4,-0.1 -0.8,-0.2 -1.2,-0.2 -1.1,0 -2,0.3 -2.8,1 l 0,-0.8 c 0.8,-0.6 1.8,-0.8 2.8,-0.8 0.5,0 0.8,0.1 1.3,0.2 l -0.1,0.6 z"
         id="path59"
         style="display:inline;fill:#e51937;fill-opacity:1"
         inkscape:connector-curvature="0" />
      <path
         class="st4"
         d="m -263.1,392.1 -1.7,-1.7 c 1.1,-0.1 2,-0.9 2,-1.9 0,-1.1 -0.6,-2 -2.5,-2.1 -0.1,0 -0.2,0 -0.2,0 -1.3,0 -2.2,0.1 -2.2,0.1 0,0 0.1,0.6 0.1,0.9 l 0,4.7 c 0,0.4 -0.1,0.9 -0.1,0.9 l 1.3,0 c 0,0 -0.1,-0.4 -0.1,-1 l 0,-1.9 1.2,1.3 0.6,0.6 c 0.4,0.4 1,0.9 1,0.9 l 1.7,0 c 0.1,0.1 -0.7,-0.4 -1.1,-0.8 m -2.5,-2.4 -0.9,0 0,-2.3 c 0,0 0.5,0 1,0 0.1,0 0.2,0 0.2,0 0.9,0.1 1.2,0.5 1.2,1.1 0,0.6 -0.5,1.1 -1.2,1.2 -0.1,0 -0.2,0 -0.3,0"
         id="path61"
         style="display:inline;fill:#e51937;fill-opacity:1"
         inkscape:connector-curvature="0" />
    </g>
    <g
       class="st0"
       id="g63"
       style="display:none;fill:#e51937;fill-opacity:1">
      <path
         class="st4"
         d="m -279.1,399.1 0.3,0 c 1.2,0 2.2,0.1 2.2,1.6 0,1.4 -1.1,1.6 -2.2,1.6 l -0.3,0 0,-3.2 0,0 z m 0,4.1 0.2,0 2.7,3.9 1.2,0 -2.8,-4 c 1.3,-0.1 2.2,-1.1 2.2,-2.4 0,-2 -1.5,-2.4 -3.2,-2.4 l -1.3,0 0,8.8 1,0 0,-3.9 0,0 z"
         id="path65"
         style="display:inline;fill:#e51937;fill-opacity:1"
         inkscape:connector-curvature="0" />
      <path
         class="st4"
         d="m -264.6,406.1 0,-7 0.7,0 c 1,0 1.9,0.1 2.7,0.9 0.8,0.7 1.1,1.6 1.1,2.6 0,1 -0.4,1.9 -1.1,2.6 -0.8,0.8 -1.7,0.9 -2.8,0.9 l -0.6,0 0,0 z m -1,0.9 1.6,0 c 1.4,0 2.4,-0.2 3.5,-1.1 1,-0.9 1.4,-2 1.4,-3.3 0,-1.3 -0.5,-2.5 -1.5,-3.4 -1,-0.9 -2.1,-1.1 -3.4,-1.1 l -1.6,0 0,8.9 0,0 z"
         id="path67"
         style="display:inline;fill:#e51937;fill-opacity:1"
         inkscape:connector-curvature="0" />
      <polygon
         class="st4"
         points="-256.8,398.2 -256.8,407 -256.8,407 -257.7,407 -257.7,398.2 "
         id="polygon69"
         style="display:inline;fill:#e51937;fill-opacity:1" />
      <path
         class="st4"
         d="m -250.9,399 c 2,0 3.6,1.6 3.6,3.6 0,2 -1.6,3.6 -3.6,3.6 -2,0 -3.6,-1.7 -3.6,-3.6 0,-2 1.6,-3.6 3.6,-3.6 l 0,0 z m 0,-0.9 c -2.5,0 -4.6,2 -4.6,4.6 0,2.5 2.1,4.5 4.6,4.5 2.5,0 4.6,-2 4.6,-4.5 0,-2.6 -2.1,-4.6 -4.6,-4.6 l 0,0 z"
         id="path71"
         style="display:inline;fill:#e51937;fill-opacity:1"
         inkscape:connector-curvature="0" />
      <polygon
         class="st4"
         points="-241.4,407 -241.4,399.2 -242.9,399.2 -242.9,399.2 -242.4,398.2 -240.5,398.2 -240.5,407 "
         id="polygon73"
         style="display:inline;fill:#e51937;fill-opacity:1" />
      <path
         class="st4"
         d="m -270.3,398.2 -0.4,0 -3.9,8.8 1.1,0 1.1,-2.5 3.7,0 1,2.5 1.1,0 -3.7,-8.8 0,0 z m -1.7,5.4 1.5,-3.5 1.5,3.5 -3,0 0,0 z"
         id="path75"
         style="display:inline;fill:#e51937;fill-opacity:1"
         inkscape:connector-curvature="0" />
    </g>
    <g
       id="g77"
       style="fill:#e51937;fill-opacity:1">
      <path
         class="st3"
         d="m -252.4,392.6 c -1.5,0 -2.7,-1.1 -3,-2.6 l 2.8,0 c 0.3,0 1,0.1 1,0.1 l 0,-1.2 c 0,0 -0.7,0 -1,0 l -2.8,0 c 0.3,-1.5 1.5,-2.5 3,-2.5 0.8,0 1.7,0.4 1.7,0.4 l 0,-1.3 c 0,0 -0.7,-0.3 -1.7,-0.3 -2.5,0 -4.6,1.9 -4.6,4.3 0,2.6 2.2,4.4 4.6,4.4 1.2,0 1.9,-0.3 1.9,-0.3 l 0,-1.4 c -0.1,0 -0.9,0.4 -1.9,0.4"
         id="path79"
         style="fill:#e51937;fill-opacity:1"
         inkscape:connector-curvature="0" />
      <path
         class="st3"
         d="m -260.8,393.9 c 0,0 0.1,-0.6 0.1,-1.2 l 0,-6 -0.4,0 c -0.6,0 -1.4,0 -2,0.1 l -0.1,-1.4 6.6,0 0,1.4 c -0.7,-0.1 -1.5,-0.1 -2.1,-0.1 l -0.5,0 0,6 c 0,0.6 0.1,1.2 0.1,1.2 l -1.7,0 z"
         id="path81"
         style="fill:#e51937;fill-opacity:1"
         inkscape:connector-curvature="0" />
      <path
         class="st3"
         d="m -250.6,384.7 c -0.5,-0.1 -1.1,-0.2 -1.6,-0.2 -1.4,0 -2.7,0.4 -3.7,1.4 l 0,-1 c 1.1,-0.7 2.3,-1.1 3.7,-1.1 0.6,0 1.1,0.1 1.7,0.2 l -0.1,0.7 z"
         id="path83"
         style="fill:#e51937;fill-opacity:1"
         inkscape:connector-curvature="0" />
      <path
         class="st3"
         d="m -267.1,389.5 -1.2,0 0,-3.1 c 0,0 0.6,0 1.3,0 0.1,0 0.2,0 0.3,0 1.1,0.1 1.6,0.7 1.6,1.5 0,0.8 -0.7,1.5 -1.6,1.6 -0.2,0 -0.3,0 -0.4,0 m 3.3,3.2 -2.3,-2.2 c 1.4,-0.1 2.6,-1.2 2.6,-2.5 0,-1.4 -0.8,-2.7 -3.3,-2.8 -0.1,0 -0.2,0 -0.3,0 -1.7,0 -2.9,0.1 -2.9,0.1 0,0 0.1,0.8 0.1,1.3 l 0,6.2 c 0,0.6 -0.1,1.2 -0.1,1.2 l 1.7,0 c 0,0 -0.1,-0.6 -0.1,-1.3 l 0,-2.5 1.6,1.7 0.8,0.8 c 0.5,0.5 1.4,1.3 1.4,1.3 l 2.3,0 c 0,-0.1 -1,-0.8 -1.5,-1.3"
         id="path85"
         style="fill:#e51937;fill-opacity:1"
         inkscape:connector-curvature="0" />
    </g>
  </g>
</svg>
