<svg height="30.4pt" viewBox="0 0 40.829666 30.4" width="40.829666pt" xmlns="http://www.w3.org/2000/svg"><path d="m445.5 12.4296v-5.9096h18.24v5.9096z" fill="#df7a5d" transform="matrix(.12661151 0 0 .12661151 -31.05954 15.174494)"/><g fill="#fff"><path d="m12.64928 16.222834 2.32079.004.004 4.49091c1.25598-1.85739 4.15032-2.1372 5.82286-.69763 1.04455.8445 1.60797 2.18405 1.62569 3.51347 0 2.18279-.004 4.37438.001 6.55716h-2.35244c.003-2.05617 0-4.11989.003-6.17732.0101-.89768-.40642-1.89664-1.28764-2.24736-.98251-.39376-2.23216-.30893-3.03361.43175-.5305.49125-.78246 1.22813-.77993 1.93969l.001 6.05324h-2.33092z"/><path d="m30.64204 16.222834 2.32079.005c.0139 3.31849-.001 6.63824.009 9.95799.0152.52924.16586 1.11039.60774 1.44591.49505.35957 1.05594.6128 1.56998.94325l-.98504 1.77383c-.38996-.0329-.71155-.27601-1.05214-.44314-.85589-.4596-1.73331-1.04075-2.14986-1.95615-.28994-.58621-.32919-1.25219-.32539-1.89537.005-3.27797-.005-6.55468.005-9.83139z"/><path d="m36.36868 16.221574h2.30686c.004 3.23872 0 6.47871.003 9.7187.0329.59507.11395 1.27877.61787 1.6738.47859.35198 1.01289.6204 1.53326.90274l-.96098 1.86626c-.81917-.31273-1.59277-.75967-2.28407-1.29904-.79385-.62546-1.21547-1.63455-1.21167-2.63478-.008-3.40965-.003-6.81803-.004-10.22768z"/><path d="m25.34588 17.897854h2.3094v.76737h-2.3094z"/><path d="m2.10761 20.354174c1.20281-.97238 2.79684-1.34335 4.31998-1.22687 1.75484.0734 3.33242 1.13697 4.29213 2.57275l-2.02832 1.2218c-.40389-.56849-.89514-1.10658-1.55352-1.37627-1.32056-.54949-2.9741-.1418-3.87938.96858-1.11164 1.29903-1.05087 3.42484.15194 4.64538 1.09519 1.18635 3.11717 1.41805 4.39848.40262.35325-.26335.62293-.6166.87362-.97364l2.03845 1.22053c-.96605 1.49022-2.65378 2.46766-4.42508 2.57781-1.39905.0861-2.86015-.24815-3.99965-1.08885-1.35095-.97365-2.20811-2.58415-2.28661-4.24402-.10762-1.78143.6913-3.59704 2.09796-4.69982z"/><path d="m25.34588 19.393194h2.3094l.006 10.69735h-2.31699z"/></g><path d="m445.5 14.1904h18.24v5.7392h-18.24z" fill="#efc0a6" transform="matrix(.12661151 0 0 .12661151 -31.05954 15.174494)"/><g fill="#e51937" transform="matrix(1.254902 0 0 1.254902 347.00308 -481.63139)"><path d="m-252.4 392.6c-1.5 0-2.7-1.1-3-2.6h2.8c.3 0 1 .1 1 .1v-1.2s-.7 0-1 0h-2.8c.3-1.5 1.5-2.5 3-2.5.8 0 1.7.4 1.7.4v-1.3s-.7-.3-1.7-.3c-2.5 0-4.6 1.9-4.6 4.3 0 2.6 2.2 4.4 4.6 4.4 1.2 0 1.9-.3 1.9-.3v-1.4c-.1 0-.9.4-1.9.4"/><path d="m-260.8 393.9s.1-.6.1-1.2v-6h-.4c-.6 0-1.4 0-2 .1l-.1-1.4h6.6v1.4c-.7-.1-1.5-.1-2.1-.1h-.5v6c0 .6.1 1.2.1 1.2z"/><path d="m-250.6 384.7c-.5-.1-1.1-.2-1.6-.2-1.4 0-2.7.4-3.7 1.4v-1c1.1-.7 2.3-1.1 3.7-1.1.6 0 1.1.1 1.7.2z"/><path d="m-267.1 389.5h-1.2v-3.1h1.3.3c1.1.1 1.6.7 1.6 1.5s-.7 1.5-1.6 1.6c-.2 0-.3 0-.4 0m3.3 3.2-2.3-2.2c1.4-.1 2.6-1.2 2.6-2.5 0-1.4-.8-2.7-3.3-2.8-.1 0-.2 0-.3 0-1.7 0-2.9.1-2.9.1s.1.8.1 1.3v6.2c0 .6-.1 1.2-.1 1.2h1.7s-.1-.6-.1-1.3v-2.5l1.6 1.7.8.8c.5.5 1.4 1.3 1.4 1.3h2.3c0-.1-1-.8-1.5-1.3"/></g></svg>