<svg height="10.582317mm" viewBox="0 0 47.579661 29.993488" width="16.784603mm" xmlns="http://www.w3.org/2000/svg"><path d="m27.235535 26.320756a1.67 1.67 0 0 1 -1.64 1.69h-17.6900004a1.67 1.67 0 0 1 -1.64-1.69v-3.85a1.67 1.67 0 0 1 1.64-1.74h17.6900004a1.67 1.67 0 0 1 1.64 1.69v3.86z" fill="#70ad51"/><path d="m29.19 22.545756c.02783-2.086656-1.653165-3.794621-3.74-3.8h-17.4c-2.0868351.0054-3.7681172 1.713344-3.7402857 3.8l.0002857 3.7c.0001596 2.067169 1.6728385 3.744488 3.74 3.75h17.4c2.067161-.0055 3.740007-1.682831 3.74-3.75z" fill="#fff"/><path d="m45.456136 11.504773c-.779578-.779277-1.770158-1.192593-2.865044-1.192593h-.718733c-.661786 0-1.30409.115393-1.90623.342282-.142356-.206208-.305119-.401028-.480454-.578464-.779278-.7792772-1.7701-1.1916942-2.863933-1.1916942-.332991 0-.668081.04227-.994868.125583-.178371-1.361936-.766031-2.562922-1.75883-3.574184l-.0082-.0063c-.171181-.17714-.373255-.355774-.591812-.529913-.01855-.221494-.05155-.433098-.101037-.623721-.198987-.747507-.561739-1.393707-1.07846-1.922717-.829928-.847313-1.894841-1.288804-3.08144-1.273218-1.156627.0081-2.166091.436994-2.996921 1.278314h.0051c-.02576.01978-.05066.04226-.07223.06384l-.183445.179533-.556883.544296-.814345.794862-.0063.0072-.02788.02996c-.194799.210405-.360545.444488-.493622.691758-1.017556-.95881-2.24252-1.447357-3.644619-1.447357h-.200813c-.354872-.498138-.782575-.934233-1.285808-1.287905-.925841-.663884-1.96168-1.00197098-3.075147-1.00197098-1.472234 0-2.747551.52900998-3.787887 1.57324098-.280239.276344-.523613.583559-.733119.91655-.465768-.12978-.944124-.199915-1.428774-.199915h-1.155728c-2.082468 0-3.89099.752602-5.377611 2.241321-1.483624 1.482425-2.238923 3.29784-2.238923 5.3937962v2.272193c0 1.485721.524513 2.760139 1.552559 3.790883 1.031044 1.031044 2.307859 1.553759 3.792682 1.553759 1.473433 0 2.740358-.522715 3.773499-1.553759.628817-.629716 1.069108-1.355643 1.320575-2.163992.325798.541297.72263 1.04543 1.187798 1.505203 1.496812 1.468038 3.302936 2.212548 5.367121 2.212548h1.152431c1.460845 0 2.733164-.527811 3.774398-1.571143.143267-.144466.277244-.301221.407322-.463969 1.41229 1.357741 3.121605 2.046501 5.082686 2.040207l2.174184-.003c.213413 0 .433097-.01978.652494-.04855-.0061.07313-.0082.145365-.0082.211303 0 1.086792.408221 2.06928 1.179404 2.842563.780417.778377 1.767039 1.189596 2.851614 1.189596 1.50005 0 2.802162-.537101 3.867313-1.596919l.0051-.0072.0021-.0021s.02026-.02367.03296-.03417c.432798.154656.887474.236182 1.35564.236182 1.101181 0 2.090863-.408222 2.865043-1.181505.579362-.582359.959711-1.308285 1.11047-2.105247.376152-.190623.724726-.439092 1.02475-.738215.777179-.780176 1.191693-1.774054 1.191693-2.874033 0-1.094885-.414514-2.085766-1.191693-2.863244" fill="#88b94c"/><path d="m44.722416 12.235795c-.588655-.589853-1.305291-.889874-2.131024-.889874h-.718734c-.870989 0-1.665854.23528-2.369001.690859-.139372-.457676-.391736-.870094-.750504-1.230059-.590841-.587456-1.306336-.8874782-2.132131-.8874782-.77838 0-1.458806.2649562-2.027918.7834742.0433-.267053.06392-.536203.06392-.8032552v-.0111c-.003-1.448556-.522686-2.704391-1.535084-3.733337h-.001c-.258749-.270949-.55252-.514323-.868128-.725627.0012-.01439.0085-.135175.0085-.135175 0-.260758-.03296-.516421-.095-.760694-.151507-.566168-.427852-1.057712-.818691-1.457841-.633011-.649497-1.418582-.9702-2.324641-.961808h-.01049c-.877284.0081-1.642175.336888-2.276386.979192l-1.608309 1.572341-.01648.01557c-.31531.341098-.51013.73703-.582363 1.180319-.209206.16185-.411518.340185-.601242.525712-.18643-.309313-.409124-.598844-.671081-.860801-.84132-.843418-1.862772-1.268124-3.041279-1.268124h-.76489c-.314409-.586556-.755899-1.083495-1.319675-1.478228-.748407-.5392-1.583732-.812547-2.476304-.812547-1.188697 0-2.216743.425905-3.058961 1.269323-.429801.4307-.7547.92674-.965105 1.475231-.586557-.302119-1.232757-.453779-1.925713-.453779h-1.156628c-1.795934 0-3.356885.650697-4.64569 1.936204-1.285807 1.283709-1.936204 2.852754-1.936204 4.6630742v2.272193c0 1.200087.422608 2.229931 1.252838 3.059861.827233.829931 1.858276 1.249541 3.057764 1.249541 1.188697 0 2.212547-.41961 3.040379-1.249541.84132-.841319 1.269921-1.872063 1.269921-3.059861v-.342283c.332992-.06504.652795-.169941.953716-.311411.277243 1.151532.860801 2.17838 1.743482 3.05057 1.297797 1.268124 2.858749 1.912526 4.643293 1.912526h1.151531c1.177608 0 2.202358-.425605 3.043378-1.268123.442389-.441191.770285-.942326.983687-1.489619.217597.309313.463969.607237.734918.882382 1.240249 1.254636 2.754745 1.887649 4.498227 1.883752l2.175381-.0063c.897967-.0021 1.69493-.255664 2.381471-.746308-.04847.05755-.09588.114193-.14021.174138-.370094.516421-.558922 1.111369-.558922 1.769258 0 .818541.296142 1.528883.876448 2.110343.588684.588654 1.301062.887476 2.119663.887476 1.21858 0 2.276358-.436994 3.141388-1.301093.180334-.176236.342192-.370156.488755-.572169.478356.309313 1.026549.468166 1.632886.468166.832928 0 1.549563-.294926 2.131021-.876387.578465-.578463.87639-1.282511.885679-2.094757.469067-.140269.891674-.390837 1.249542-.748705.590753-.591651.890773-1.311284.890773-2.143312 0-.825733-.300012-1.54117-.890773-2.131922" fill="#cfcb3a"/><g fill="#fff"><path d="m27.194975 6.35645c.01139.011389.02278.024577.02278.024577s1.808223-.08662 1.820511-.088418c.389938.00929.692957-.1702421.880583-.521816l.003-.00719.0021-.003c.196013-.4157146.135169-.8020561-.177141-1.1206606-.176536-.1837295-.397132-.2814389-.654893-.2970244-.25866-.013487-.486448.067138-.680368.2421753l-.0051.0054-1.353544 1.3040902-.01049.013488c-.03926.055449-.05875.1153929-.05875.1729396 0 .072233.02997.1414687.08752.2002142.04046.044359.08362.06474.123785.07523"/><path d="m9.704401 7.2286409h-1.156627c-.9866846 0-1.8483852.3596663-2.5578271 1.0691082-.7088424.710341-1.0685088 1.5711425-1.0685088 2.5599249v2.272192c0 .36686.1348749.686663.4016275.953715.2667525.266753.587455.401928.9546144.401928.3659605 0 .686663-.135175.9462222-.404026.2577608-.264954.3917366-.585656.3917366-.951617v-2.272192c0-.271248.089917-.493941.2733464-.677371.1855279-.1837299.403126-.2754448.6587888-.2754448h1.156627c.367159 0 .684565-.1309785.944424-.3917366.260758-.2616573.392935-.5781636.392935-.9462222 0-.3650613-.132177-.6845649-.392935-.9456227-.259859-.2595592-.577265-.3926358-.944424-.3926358"/><path d="m20.216549 7.2286409h-3.225008v-.9516172c0-.3671594-.12978-.6845649-.393835-.945323-.259559-.261957-.577264-.3929355-.943225-.3929355-.36596 0-.685464.1309785-.954614.3908374-.264954.2607581-.402227.5802617-.402227.9474211v4.4134053h-.0039s.0039.201114.0039.20531v.01139c.02907.984587.392935 1.833999 1.086792 2.528754.698951.695955 1.55166 1.049627 2.542241 1.049627h1.151532c.370157 0 .68996-.135175.950718-.404026.256562-.264954.389639-.585656.389639-.951617 0-.367159-.133077-.684565-.393835-.945323-.25866-.261957-.578463-.392935-.946522-.392935h-1.151532c-.59285-.03507-.881482-.306316-.935132-.911455v-.9752948h3.225008c.36596 0 .686663-.1309785.945323-.3917366.260758-.2616573.391737-.5781636.391737-.9462222 0-.3650613-.130979-.6845649-.391737-.9456227-.25866-.2595592-.579363-.3926358-.945323-.3926358"/><path d="m31.812192 13.342669v-.184329s-.01559-.02488-.01738-.03297c0-.0033-.0021-.177435-.0021-.177435s-.01049-.0093-.01768-.01738v-.123785s-.02458-.0051-.03507-.0093v-.04226s-.01948-.01768-.03387-.03507v-.03507l-.05874-.05994c-.119589-.229886-.305117-.417512-.548491-.555684-.0033 0-.06414-.06264-.06414-.06264s-.01948.0018-.03687.0018c-.01439-.01828-.03297-.03597-.03297-.03597h-.08662c-.01978-.0072-.03716-.01019-.05695-.01019-.02038-.01259-.04406-.01558-.06894-.01978.524813-.325798.857804-.840121.99178-1.540271.01229-.01139.02578-.02458.02578-.02458s-.0021-.137273-.0021-.141169c.01049-.02698.01648-.05994.01648-.09711v-.05365l.0051-.05665.01349-.1360742c-.002099-.6608797-.239179-1.2309508-.70105-1.7000157-.466068-.4690648-1.03494-.7052457-1.697925-.7052457l-1.087691.0033c-.94862.0018-1.773155.3545711-2.451726 1.0484274-.67827.6905594-1.021452 1.5297812-1.017556 2.4918882 0 .962707.347378 1.801029 1.028946 2.48949.681568.687862 1.510299 1.038237 2.455921 1.034341l2.175083-.0033c.438193-.0021.778378-.182531 1.022951-.530808h.110297v-.03417h.01738v-.05245h.03297v-.08782h.03627v-.136074c0-.0018 0-.0018.000899-.0039h.04856v-.190923c.0072-.0072.01858-.01648.01858-.01648v-.139071l.01738-.01768"/></g><path d="m44.098995 12.858917c-.419611-.419611-.921645-.627918-1.507303-.627918h-.718731c-.972 0-1.810321.347378-2.507176 1.04543-.326996.326697-.576366.685464-.748527 1.076302-.04227-.110298-.09174-.219696-.15052-.3237.194848-.34438.289702-.708243.289702-1.090688 0-.584757-.209301-1.086792-.629928-1.504304-.417543-.421709-.920654-.630915-1.505203-.630915-.592791 0-1.097972.209207-1.517584.630915-.412357.411518-.618564.912353-.618564 1.504304 0 .406123.10205.767887.303108 1.090688-.201046.330894-.303108.694756-.303108 1.091887v1.506103c-.411339.143267-.749515.395933-1.011383.758896-.262882.364761-.392786.780177-.392786 1.253438 0 .577563.205158 1.072404.61653 1.484822.419582.419311.918586.629716 1.494892.629716.982488 0 1.82273-.347378 2.518623-1.04633.427853-.415414.721673-.888675.887659-1.414388.08971.153456.203011.300923.339075.436995.412418.413317.919847.617428 1.51779.617428.592551 0 1.097881-.204112 1.507303-.617428.419312-.420509.628816-.92674.628816-1.518691v-.708243c.593749 0 1.094885-.207108 1.507303-.619525.420509-.417513.629716-.924643.629716-1.515394 0-.586856-.20921-1.087691-.629716-1.5094" fill="#354b7e"/><path d="m35.913364 17.211179c0 .369257-.172169.597047-.516512.686663-.0433.01557-.113389.02697-.20413.03417-.179366 0-.343299.06684-.487647.202014-.148464.136072-.219612.303019-.219612.504132 0 .195718.06909.363863.206217.501135.13915.13997.306194.209207.501042.209207.57115 0 1.066022-.203211 1.485602-.607237.425786-.412417.644373-.903062.649528-1.474332v-2.147508c0-.202013-.067-.373154-.206217-.509227-.138153-.14027-.306195-.209207-.500026-.209207-.187621 0-.351545.06684-.493822.202013-.143294.133978-.214441.300021-.214441.493642z" fill="#d7557f"/><path d="m41.164117 15.795293c0-.203211.07012-.373154.208303-.510426.137881-.141168.306016-.209207.500837-.209207h.718731c.194817 0 .363863-.07014.500837-.209208.139362-.136072.208302-.303318.208302-.499037 0-.194819-.06894-.360865-.208302-.501135-.136974-.139071-.306017-.208305-.500837-.208305h-.718731c-.58356 0-1.086492.210404-1.506104.630914-.419611.419611-.630916.922845-.630916 1.506402v1.416487c0 .19482.07015.362963.214289.50623.143263.143266.312313.214302.506232.214302.19391 0 .360863-.07103.499936-.214302.139362-.143266.207396-.311411.207396-.50623z" fill="#dde0eb"/><path d="m37.510746 14.092872-.840241-.45258-.846416.437295.17217-.93843-.676321-.673175.944363-.126785.426835-.851509.415475.858702.943313.146566-.691757.658789z" fill="#fff"/><path d="m33.415344 11.677413c.240227-.573368.359818-1.170415.35775-1.7878422-.0021-1.215373-.430941-2.254808-1.28263-3.119806-.360867-.373154-.756498-.664783-1.187499-.879384.09262-.37735.101899-.772084.0082-1.13175-.111308-.417812-.309421-.772384-.595954-1.066111-.460673-.471163-1.025649-.703148-1.688634-.693856-.646501.003-1.204283.245472-1.67125.725926l-1.585529 1.550462-.01049.0081c-.232882.250568-.359666.545494-.37615.882681-.0042.05755-.0042.111196 0 .166046-.328797.215189-.637212.475048-.930939.774171-.327895.335092-.605137.689663-.829929 1.064016-.08242-.770285-.412418-1.442562-.989682-2.018627-.671077-.673176-1.478528-1.009464-2.415758-1.009464h-1.334962c-.240078-.676172-.660887-1.220468-1.26183-1.642176-.601242-.433099-1.256734-.648599-1.964977-.648599-.950718 0-1.762065.335989-2.434042 1.010363-.65789.65789-.988783 1.459946-.992979 2.40407-.03507-.03896-.07013-.07823-.1073-.114194-.674075-.673176-1.480327-1.009464-2.416358-1.009464h-1.156927c-1.559753 0-2.900709.558682-4.018672 1.676345-1.12096 1.118563-1.678443 2.464014-1.678443 4.0393532v2.272193c0 .961807.329694 1.773155.99208 2.43524.662385.659688 1.474632.992679 2.434941.992679.94862 0 1.754572-.332991 2.415459-.992679.672277-.673175 1.011562-1.485722 1.011562-2.43524v-1.135047c.949519 0 1.753672-.330894 2.416358-.992679.03716-.03627.07223-.07553.107299-.112398v.0039c.0114 1.576538.570071 2.909401 1.676345 4.004286 1.13205 1.106273 2.472406 1.65986 4.022867 1.65986h1.151532c.939329 0 1.745281-.338985 2.418757-1.011262.671977-.674374 1.008265-1.478528 1.008265-2.416658 0-.600943-.149562-1.159924-.450483-1.677244.310213-.201113.577264-.440292.808051-.717535-.0051.09891-.0081.200814-.0081.30182.0042 1.518691.542197 2.820983 1.614303 3.905377 1.073304 1.085593 2.364206 1.624792 3.868211 1.620597l2.174482-.0051c.91835-.0021 1.695828-.324599 2.324674-.969001.633015-.6465.946434-1.436268.945385-2.370201-.003-.538301-.1237-1.050526-.367011-1.541171m-22.910138-2.3084562c-.221495.223593-.490645.335089-.800857.335089h-1.156927c-.31231 0-.578164.110299-.800857.3329922-.221794.222693-.332991.495739-.332991.820638v2.272193c0 .313509-.111496.584457-.335089.812546-.221795.227788-.487648.342283-.801157.342283-.31231 0-.58266-.114496-.810448-.342283-.230786-.228089-.34468-.499037-.34468-.812546v-2.272193c0-.9393292.338685-1.7434822 1.009763-2.4166592.674374-.671976 1.480327-1.009163 2.415459-1.009163h1.156927c.310212 0 .579362.110299.800857.331792.223893.222693.334189.493043.334189.803255 0 .314408-.110298.580262-.334189.802056m10.513946 0c-.222693.223593-.487648.335089-.802356.335089h-3.426721v1.1895972c.06084.710341.441191 1.064013 1.137146 1.064013l1.151531.03716c.315607 0 .581461.110299.805053.332092.221795.222692.332991.489446.332991.802955s-.111197.584458-.332991.812546c-.223594.227788-.489446.342283-.805053.342283h-1.151531c-.939329.000001-1.738088-.331191-2.400174-.992978-.660887-.660887-1.003169-1.461744-1.028945-2.398075v-4.6166182c0-.311411.11659-.579362.34438-.802955.228988-.222693.499037-.332092.812546-.332092.31231 0 .578164.109398.802056.332092.222692.223594.332991.491544.332991.802955v1.154829h3.426721c.314708 0 .579662.110299.802356.331792.223593.222693.332991.493042.332991.803255 0 .314408-.109398.580261-.332991.802056m6.18776-3.3413c.222693-.2164.445387-.433998.670178-.646501.223592-.214301.447186-.428902.671976-.647399.148663-.135175.329095-.199915.533206-.188525.204112.01228.378249.08962.521516.237079.250568.256561.294926.554486.136073.890774-.152558.288633-.38874.427703-.705246.418412l-1.735091.08572c-.006-.0063-.01738-.0114-.03297-.0114-.01738 0-.03506-.0084-.05155-.02697-.03597-.03387-.03806-.07313-.0081-.111197m3.357784 6.0960442c.567975 0 1.027747.496939 1.027747 1.112268 0 .613532-.459772 1.112569-1.027747 1.112569l-2.232029.0051c-.895856.003-1.667041-.32281-2.31444-.976203-.644403-.651596-.969301-1.433271-.9702-2.346524-.003-.910256.318604-1.6940282.961808-2.3495202.640205-.65789 1.409292-.985786 2.307259-.988783l1.08889-.0021c.608136-.0021 1.124556.213401 1.550463.644402.429801.4319.643201.951618.643201 1.558854 0 .2340832-.04947.4546792-.04947.4546792-.182238.971098-.766989 1.55166-1.756671 1.741084 0 0-.07613.01349-.104004.01648l-.118689.01978s.935132-.0021.993876-.0021" fill="#354b7e"/><path d="m28.323129 9.9018598c.297923 0 .554785.1082002.768187.3237002.212204.213401.320403.480454.320403.796061 0 .303918-.105204.562878-.317405.780177-.212503.215499-.468166.326996-.766089.326996-.311412 0-.57217-.107299-.784373-.3237-.214601-.2146-.321901-.474459-.322801-.777479 0-.315307.104004-.582359.316507-.799958.215499-.215499.47416-.3257972.785571-.3257972" fill="#354b7e"/><path d="m46.117622 10.843587c-.959711-.9576132-2.17928-1.4650422-3.52593-1.4650422h-.718432c-.537103 0-1.062816.06803-1.574439.198116-.05334-.05575-.104015-.112394-.153453-.159751-.959711-.96001-2.177389-1.467139-3.523831-1.467139-.08143 0-.166002.0021-.250545.0063-.315457-1.183598-.929916-2.249709-1.836125-3.172253l-.0051-.0063h-.0021c-.110313-.113295-.236099-.231984-.377327-.35577-.02268-.130978-.04741-.258659-.07835-.381546 0-.000896-.003-.0072-.003-.0072-.238265-.900962-.682602-1.686533-1.313576-2.331835-1.009164-1.03404098-2.30726-1.56934398-3.750721-1.55375798h-.0093c-1.382309.01019-2.639043.541297-3.632921 1.53937198l-.0021-.0021-1.641278 1.605011s-.03087.03207-.04227.04226c-.942314-.639008-2.013521-.985486-3.18873-1.031943-.351575-.421709-.755899-.800857-1.214474-1.12156v-.0021l-.0051-.0042c-1.088865-.77927498-2.305437-1.17430798-3.614622-1.17430798-1.727897 0-3.226806.621623-4.45177 1.84538798-.164847.168144-.3237.348576-.471163.532006-.348277-.05545-.692657-.08662-1.025648-.08662h-1.156927c-2.33903 0-4.370246.845516-6.0367 2.512569-1.666474 1.667058-2.51169 3.704268-2.51169 6.0558872v2.272192c0 1.741385.61443 3.240294 1.825307 4.45177 1.213874 1.212376 2.709487 1.827705 4.45207 1.827705 1.727897 0 3.219614-.615329 4.434086-1.827705.317405-.319803.597946-.662086.837123-1.025948.113296.125883.230788.249667.350376.369257 1.684737 1.648471 3.710557 2.484396 6.028307 2.484396h1.151532c1.637081 0 3.065856-.562878 4.254553-1.673049 1.444361 1.117365 3.129097 1.684438 5.014648 1.680242 0 0 1.385614-.0039 1.942499-.006.157656 1.031043.638107 1.967075 1.391608 2.731066.154662.154656.397133.46277.682467.662685 2.384737 1.645533 6.079559.453749 7.031176-.828731 1.716508.455577 3.861918-.447485 4.584849-1.227961.653694-.706145 1.036138-1.344253 1.264827-2.156799.321601-.199915.61353-.431.87219-.688461.955813-.958811 1.462044-2.179579 1.462044-3.533123 0-1.348748-.506231-2.567118-1.462044-3.52503" fill="#fff"/><path d="m45.456136 11.504773c-.779578-.779277-1.770158-1.192593-2.865044-1.192593h-.718733c-.661786 0-1.30409.115393-1.90623.342282-.142356-.206208-.305119-.401028-.480454-.578464-.779278-.7792772-1.7701-1.1916942-2.863933-1.1916942-.332991 0-.668081.04227-.994868.125583-.178371-1.361936-.766031-2.562922-1.75883-3.574184l-.0082-.0063c-.171181-.17714-.373255-.355774-.591812-.529913-.01855-.221494-.05155-.433098-.101037-.623721-.198987-.747507-.561739-1.393707-1.07846-1.922717-.829928-.847313-1.894841-1.288804-3.08144-1.273218-1.156627.0081-2.166091.436994-2.996921 1.278314h.0051c-.02576.01978-.05066.04226-.07223.06384l-.183445.179533-.556883.544296-.814345.794862-.0063.0072-.02788.02996c-.194799.210405-.360545.444488-.493622.691758-1.017556-.95881-2.24252-1.447357-3.644619-1.447357h-.200813c-.354872-.498138-.782575-.934233-1.285808-1.287905-.925841-.663884-1.96168-1.00197098-3.075147-1.00197098-1.472234 0-2.747551.52900998-3.787887 1.57324098-.280239.276344-.523613.583559-.733119.91655-.465768-.12978-.944124-.199915-1.428774-.199915h-1.155728c-2.082468 0-3.89099.752602-5.377611 2.241321-1.483624 1.482425-2.238923 3.29784-2.238923 5.3937962v2.272193c0 1.485721.524513 2.760139 1.552559 3.790883 1.031044 1.031044 2.307859 1.553759 3.792682 1.553759 1.473433 0 2.740358-.522715 3.773499-1.553759.628817-.629716 1.069108-1.355643 1.320575-2.163992.325798.541297.72263 1.04543 1.187798 1.505203 1.496812 1.468038 3.302936 2.212548 5.367121 2.212548h1.152431c1.460845 0 2.733164-.527811 3.774398-1.571143.143267-.144466.277244-.301221.407322-.463969 1.41229 1.357741 3.121605 2.046501 5.082686 2.040207l2.174184-.003c.213413 0 .433097-.01978.652494-.04855-.0061.07313-.0082.145365-.0082.211303 0 1.086792.408221 2.06928 1.179404 2.842563.780417.778377 1.767039 1.189596 2.851614 1.189596 1.50005 0 2.802162-.537101 3.867313-1.596919l.0051-.0072.0021-.0021s.02026-.02367.03296-.03417c.432798.154656.887474.236182 1.35564.236182 1.101181 0 2.090863-.408222 2.865043-1.181505.579362-.582359.959711-1.308285 1.11047-2.105247.376152-.190623.724726-.439092 1.02475-.738215.777179-.780176 1.191693-1.774054 1.191693-2.874033 0-1.094885-.414514-2.085766-1.191693-2.863244" fill="#7ac041"/><path d="m44.722416 12.235795c-.588655-.589853-1.305291-.889874-2.131024-.889874h-.718734c-.870989 0-1.665854.23528-2.369001.690859-.139372-.457676-.391736-.870094-.750504-1.230059-.590841-.587456-1.306336-.8874782-2.132131-.8874782-.77838 0-1.458806.2649562-2.027918.7834742.0433-.267053.06392-.536203.06392-.8032552v-.0111c-.003-1.448556-.522686-2.704391-1.535084-3.733337h-.001c-.258749-.270949-.55252-.514323-.868128-.725627.0012-.01439.0085-.135175.0085-.135175 0-.260758-.03296-.516421-.095-.760694-.151507-.566168-.427852-1.057712-.818691-1.457841-.633011-.649497-1.418582-.9702-2.324641-.961808h-.01049c-.877284.0081-1.642175.336888-2.276386.979192l-1.608309 1.572341-.01648.01557c-.31531.341098-.51013.73703-.582363 1.180319-.209206.16185-.411518.340185-.601242.525712-.18643-.309313-.409124-.598844-.671081-.860801-.84132-.843418-1.862772-1.268124-3.041279-1.268124h-.76489c-.314409-.586556-.755899-1.083495-1.319675-1.478228-.748407-.5392-1.583732-.812547-2.476304-.812547-1.188697 0-2.216743.425905-3.058961 1.269323-.429801.4307-.7547.92674-.965105 1.475231-.586557-.302119-1.232757-.453779-1.925713-.453779h-1.156628c-1.795934 0-3.356885.650697-4.64569 1.936204-1.285807 1.283709-1.936204 2.852754-1.936204 4.6630742v2.272193c0 1.200087.422608 2.229931 1.252838 3.059861.827233.829931 1.858276 1.249541 3.057764 1.249541 1.188697 0 2.212547-.41961 3.040379-1.249541.84132-.841319 1.269921-1.872063 1.269921-3.059861v-.342283c.332992-.06504.652795-.169941.953716-.311411.277243 1.151532.860801 2.17838 1.743482 3.05057 1.297797 1.268124 2.858749 1.912526 4.643293 1.912526h1.151531c1.177608 0 2.202358-.425605 3.043378-1.268123.442389-.441191.770285-.942326.983687-1.489619.217597.309313.463969.607237.734918.882382 1.240249 1.254636 2.754745 1.887649 4.498227 1.883752l2.175381-.0063c.897967-.0021 1.69493-.255664 2.381471-.746308-.04847.05755-.09588.114193-.14021.174138-.370094.516421-.558922 1.111369-.558922 1.769258 0 .818541.296142 1.528883.876448 2.110343.588684.588654 1.301062.887476 2.119663.887476 1.21858 0 2.276358-.436994 3.141388-1.301093.180334-.176236.342192-.370156.488755-.572169.478356.309313 1.026549.468166 1.632886.468166.832928 0 1.549563-.294926 2.131021-.876387.578465-.578463.87639-1.282511.885679-2.094757.469067-.140269.891674-.390837 1.249542-.748705.590753-.591651.890773-1.311284.890773-2.143312 0-.825733-.300012-1.54117-.890773-2.131922" fill="#c1d72d"/><path d="m27.194975 6.35645c.01139.011389.02278.024577.02278.024577s1.808223-.08662 1.820511-.088418c.389938.00929.692957-.1702421.880583-.521816l.003-.00719.0021-.003c.196013-.4157146.135169-.8020561-.177141-1.1206606-.176536-.1837295-.397132-.2814389-.654893-.2970244-.25866-.013487-.486448.067138-.680368.2421753l-.0051.0054-1.353544 1.3040902-.01049.013488c-.03926.055449-.05875.1153929-.05875.1729396 0 .072233.02997.1414687.08752.2002142.04046.044359.08362.06474.123785.07523" fill="#fff"/><path d="m9.704401 7.2286409h-1.156627c-.9866846 0-1.8483852.3596663-2.5578271 1.0691082-.7088424.710341-1.0685088 1.5711425-1.0685088 2.5599249v2.272192c0 .36686.1348749.686663.4016275.953715.2667525.266753.587455.401928.9546144.401928.3659605 0 .686663-.135175.9462222-.404026.2577608-.264954.3917366-.585656.3917366-.951617v-2.272192c0-.271248.089917-.493941.2733464-.677371.1855279-.1837299.403126-.2754448.6587888-.2754448h1.156627c.367159 0 .684565-.1309785.944424-.3917366.260758-.2616573.392935-.5781636.392935-.9462222 0-.3650613-.132177-.6845649-.392935-.9456227-.259859-.2595592-.577265-.3926358-.944424-.3926358" fill="#fff"/><path d="m20.216549 7.2286409h-3.225008v-.9516172c0-.3671594-.12978-.6845649-.393835-.945323-.259559-.261957-.577264-.3929355-.943225-.3929355-.36596 0-.685464.1309785-.954614.3908374-.264954.2607581-.402227.5802617-.402227.9474211v4.4134053h-.0039s.0039.201114.0039.20531v.01139c.02907.984587.392935 1.833999 1.086792 2.528754.698951.695955 1.55166 1.049627 2.542241 1.049627h1.151532c.370157 0 .68996-.135175.950718-.404026.256562-.264954.389639-.585656.389639-.951617 0-.367159-.133077-.684565-.393835-.945323-.25866-.261957-.578463-.392935-.946522-.392935h-1.151532c-.59285-.03507-.881482-.306316-.935132-.911455v-.9752948h3.225008c.36596 0 .686663-.1309785.945323-.3917366.260758-.2616573.391737-.5781636.391737-.9462222 0-.3650613-.130979-.6845649-.391737-.9456227-.25866-.2595592-.579363-.3926358-.945323-.3926358" fill="#fff"/><path d="m31.812192 13.342669v-.184329s-.01559-.02488-.01738-.03297c0-.0033-.0021-.177435-.0021-.177435s-.01049-.0093-.01768-.01738v-.123785s-.02458-.0051-.03507-.0093v-.04226s-.01948-.01768-.03387-.03507v-.03507l-.05874-.05994c-.119589-.229886-.305117-.417512-.548491-.555684-.0033 0-.06414-.06264-.06414-.06264s-.01948.0018-.03687.0018c-.01439-.01828-.03297-.03597-.03297-.03597h-.08662c-.01978-.0072-.03716-.01019-.05695-.01019-.02038-.01259-.04406-.01558-.06894-.01978.524813-.325798.857804-.840121.99178-1.540271.01229-.01139.02578-.02458.02578-.02458s-.0021-.137273-.0021-.141169c.01049-.02698.01648-.05994.01648-.09711v-.05365l.0051-.05665.01349-.1360742c-.002099-.6608797-.239179-1.2309508-.70105-1.7000157-.466068-.4690648-1.03494-.7052457-1.697925-.7052457l-1.087691.0033c-.94862.0018-1.773155.3545711-2.451726 1.0484274-.67827.6905594-1.021452 1.5297812-1.017556 2.4918882 0 .962707.347378 1.801029 1.028946 2.48949.681568.687862 1.510299 1.038237 2.455921 1.034341l2.175083-.0033c.438193-.0021.778378-.182531 1.022951-.530808h.110297v-.03417h.01738v-.05245h.03297v-.08782h.03627v-.136074c0-.0018 0-.0018.000899-.0039h.04856v-.190923c.0072-.0072.01858-.01648.01858-.01648v-.139071l.01738-.01768" fill="#fff"/><path d="m44.098995 12.858917c-.419611-.419611-.921645-.627918-1.507303-.627918h-.718731c-.972 0-1.810321.347378-2.507176 1.04543-.326996.326697-.576366.685464-.748527 1.076302-.04227-.110298-.09174-.219696-.15052-.3237.194848-.34438.289702-.708243.289702-1.090688 0-.584757-.209301-1.086792-.629928-1.504304-.417543-.421709-.920654-.630915-1.505203-.630915-.592791 0-1.097972.209207-1.517584.630915-.412357.411518-.618564.912353-.618564 1.504304 0 .406123.10205.767887.303108 1.090688-.201046.330894-.303108.694756-.303108 1.091887v1.506103c-.411339.143267-.749515.395933-1.011383.758896-.262882.364761-.392786.780177-.392786 1.253438 0 .577563.205158 1.072404.61653 1.484822.419582.419311.918586.629716 1.494892.629716.982488 0 1.82273-.347378 2.518623-1.04633.427853-.415414.721673-.888675.887659-1.414388.08971.153456.203011.300923.339075.436995.412418.413317.919847.617428 1.51779.617428.592551 0 1.097881-.204112 1.507303-.617428.419312-.420509.628816-.92674.628816-1.518691v-.708243c.593749 0 1.094885-.207108 1.507303-.619525.420509-.417513.629716-.924643.629716-1.515394 0-.586856-.20921-1.087691-.629716-1.5094" fill="#19388a"/><path d="m35.913364 17.211179c0 .369257-.172169.597047-.516512.686663-.0433.01557-.113389.02697-.20413.03417-.179366 0-.343299.06684-.487647.202014-.148464.136072-.219612.303019-.219612.504132 0 .195718.06909.363863.206217.501135.13915.13997.306194.209207.501042.209207.57115 0 1.066022-.203211 1.485602-.607237.425786-.412417.644373-.903062.649528-1.474332v-2.147508c0-.202013-.067-.373154-.206217-.509227-.138153-.14027-.306195-.209207-.500026-.209207-.187621 0-.351545.06684-.493822.202013-.143294.133978-.214441.300021-.214441.493642z" fill="#ec4f8f"/><path d="m41.164117 15.795293c0-.203211.07012-.373154.208303-.510426.137881-.141168.306016-.209207.500837-.209207h.718731c.194817 0 .363863-.07014.500837-.209208.139362-.136072.208302-.303318.208302-.499037 0-.194819-.06894-.360865-.208302-.501135-.136974-.139071-.306017-.208305-.500837-.208305h-.718731c-.58356 0-1.086492.210404-1.506104.630914-.419611.419611-.630916.922845-.630916 1.506402v1.416487c0 .19482.07015.362963.214289.50623.143263.143266.312313.214302.506232.214302.19391 0 .360863-.07103.499936-.214302.139362-.143266.207396-.311411.207396-.50623z" fill="#78bde6"/><path d="m37.510746 14.092872-.840241-.45258-.846416.437295.17217-.93843-.676321-.673175.944363-.126785.426835-.851509.415475.858702.943313.146566-.691757.658789z" fill="#ffcf3b"/><path d="m33.415344 11.677413c.240227-.573368.359818-1.170415.35775-1.7878422-.0021-1.215373-.430941-2.254808-1.28263-3.119806-.360867-.373154-.756498-.664783-1.187499-.879384.09262-.37735.101899-.772084.0082-1.13175-.111308-.417812-.309421-.772384-.595954-1.066111-.460673-.471163-1.025649-.703148-1.688634-.693856-.646501.003-1.204283.245472-1.67125.725926l-1.585529 1.550462-.01049.0081c-.232882.250568-.359666.545494-.37615.882681-.0042.05755-.0042.111196 0 .166046-.328797.215189-.637212.475048-.930939.774171-.327895.335092-.605137.689663-.829929 1.064016-.08242-.770285-.412418-1.442562-.989682-2.018627-.671077-.673176-1.478528-1.009464-2.415758-1.009464h-1.334962c-.240078-.676172-.660887-1.220468-1.26183-1.642176-.601242-.433099-1.256734-.648599-1.964977-.648599-.950718 0-1.762065.335989-2.434042 1.010363-.65789.65789-.988783 1.459946-.992979 2.40407-.03507-.03896-.07013-.07823-.1073-.114194-.674075-.673176-1.480327-1.009464-2.416358-1.009464h-1.156927c-1.559753 0-2.900709.558682-4.018672 1.676345-1.12096 1.118563-1.678443 2.464014-1.678443 4.0393532v2.272193c0 .961807.329694 1.773155.99208 2.43524.662385.659688 1.474632.992679 2.434941.992679.94862 0 1.754572-.332991 2.415459-.992679.672277-.673175 1.011562-1.485722 1.011562-2.43524v-1.135047c.949519 0 1.753672-.330894 2.416358-.992679.03716-.03627.07223-.07553.107299-.112398v.0039c.0114 1.576538.570071 2.909401 1.676345 4.004286 1.13205 1.106273 2.472406 1.65986 4.022867 1.65986h1.151532c.939329 0 1.745281-.338985 2.418757-1.011262.671977-.674374 1.008265-1.478528 1.008265-2.416658 0-.600943-.149562-1.159924-.450483-1.677244.310213-.201113.577264-.440292.808051-.717535-.0051.09891-.0081.200814-.0081.30182.0042 1.518691.542197 2.820983 1.614303 3.905377 1.073304 1.085593 2.364206 1.624792 3.868211 1.620597l2.174482-.0051c.91835-.0021 1.695828-.324599 2.324674-.969001.633015-.6465.946434-1.436268.945385-2.370201-.003-.538301-.1237-1.050526-.367011-1.541171m-22.910138-2.3084562c-.221495.223593-.490645.335089-.800857.335089h-1.156927c-.31231 0-.578164.110299-.800857.3329922-.221794.222693-.332991.495739-.332991.820638v2.272193c0 .313509-.111496.584457-.335089.812546-.221795.227788-.487648.342283-.801157.342283-.31231 0-.58266-.114496-.810448-.342283-.230786-.228089-.34468-.499037-.34468-.812546v-2.272193c0-.9393292.338685-1.7434822 1.009763-2.4166592.674374-.671976 1.480327-1.009163 2.415459-1.009163h1.156927c.310212 0 .579362.110299.800857.331792.223893.222693.334189.493043.334189.803255 0 .314408-.110298.580262-.334189.802056m10.513946 0c-.222693.223593-.487648.335089-.802356.335089h-3.426721v1.1895972c.06084.710341.441191 1.064013 1.137146 1.064013l1.151531.03716c.315607 0 .581461.110299.805053.332092.221795.222692.332991.489446.332991.802955s-.111197.584458-.332991.812546c-.223594.227788-.489446.342283-.805053.342283h-1.151531c-.939329.000001-1.738088-.331191-2.400174-.992978-.660887-.660887-1.003169-1.461744-1.028945-2.398075v-4.6166182c0-.311411.11659-.579362.34438-.802955.228988-.222693.499037-.332092.812546-.332092.31231 0 .578164.109398.802056.332092.222692.223594.332991.491544.332991.802955v1.154829h3.426721c.314708 0 .579662.110299.802356.331792.223593.222693.332991.493042.332991.803255 0 .314408-.109398.580261-.332991.802056m6.18776-3.3413c.222693-.2164.445387-.433998.670178-.646501.223592-.214301.447186-.428902.671976-.647399.148663-.135175.329095-.199915.533206-.188525.204112.01228.378249.08962.521516.237079.250568.256561.294926.554486.136073.890774-.152558.288633-.38874.427703-.705246.418412l-1.735091.08572c-.006-.0063-.01738-.0114-.03297-.0114-.01738 0-.03506-.0084-.05155-.02697-.03597-.03387-.03806-.07313-.0081-.111197m3.357784 6.0960442c.567975 0 1.027747.496939 1.027747 1.112268 0 .613532-.459772 1.112569-1.027747 1.112569l-2.232029.0051c-.895856.003-1.667041-.32281-2.31444-.976203-.644403-.651596-.969301-1.433271-.9702-2.346524-.003-.910256.318604-1.6940282.961808-2.3495202.640205-.65789 1.409292-.985786 2.307259-.988783l1.08889-.0021c.608136-.0021 1.124556.213401 1.550463.644402.429801.4319.643201.951618.643201 1.558854 0 .2340832-.04947.4546792-.04947.4546792-.182238.971098-.766989 1.55166-1.756671 1.741084 0 0-.07613.01349-.104004.01648l-.118689.01978s.935132-.0021.993876-.0021" fill="#19388a"/><path d="m28.323129 9.9018598c.297923 0 .554785.1082002.768187.3237002.212204.213401.320403.480454.320403.796061 0 .303918-.105204.562878-.317405.780177-.212503.215499-.468166.326996-.766089.326996-.311412 0-.57217-.107299-.784373-.3237-.214601-.2146-.321901-.474459-.322801-.777479 0-.315307.104004-.582359.316507-.799958.215499-.215499.47416-.3257972.785571-.3257972" fill="#19388a"/><path d="m28.257847 22.848162c.02575-1.740891-1.529292-3.165842-3.459758-3.170331h-16.0961994c-1.9304665.0045-3.4857684 1.429439-3.4600223 3.170331l.0002643 3.086902c.0001476 1.724634 1.5474908 3.124018 3.459758 3.128617h16.0961994c1.912267-.0046 3.459764-1.403982 3.459758-3.128617z" fill="#7ac041"/><g fill="#fff" transform="translate(-.735622 .751393)"><path d="m8.4950693 21.929528c0-.23344.229279-.42782.459389-.39792.534153-.004 1.0824287-.0806 1.6074437.054.747649.20685 1.258542 1.01015 1.126457 1.77525-.04984.47102-.359702.86395-.730203 1.13809.18442.18109.388777.34558.550768.54827.206849.27414-.04403.72024-.384624.69365-.234263-.00083-.378809-.21266-.536646-.35388-.235094-.21516-.435297-.47185-.6969737-.65461-.167806-.0133-.335611-.005-.503417-.002.000831.23011.01744.46105-.0066.69033-.06895.33228-.545783.44443-.762601.18857-.147038-.13126-.11547-.34143-.120455-.51754.01246-1.05418-.01994-2.10837-.0025-3.16172m.893856.48265c.0033.47268.0017.94452.00083 1.4172.397085-.0332.8747487.11797 1.1970687-.19023.312351-.26998.292413-.79915-.02741-1.05502-.324812-.27829-.7825387-.14371-1.1704847-.17195z"/><path d="m13.667967 21.661198c.295736-.14288.63467-.15368.955328-.1163.713589.098 1.312539.74516 1.321677 1.47121.01495.77672.01828 1.55428.0025 2.331-.03738.39875-.641316.50508-.814106.14538-.09886-.30571-.02492-.64215-.04569-.96032-.490956.002-.981081-.002-1.471206.004-.02908.33893.112147.741-.110486 1.03425-.21931.28992-.753464.13125-.764263-.23427-.01246-.74598-.0017-1.4928-.0042-2.23879.0017-.60476.378809-1.18793.930408-1.43632m.169467.91961c-.311521.27331-.21848.72356-.229279 1.09074.492617.002.985234-.01 1.477852-.003-.01329-.34475.0731-.74848-.182759-1.02927-.260015-.31235-.775062-.34807-1.065814-.0581z"/><path d="m17.295723 21.552378c.422838-.10218.869765-.0224 1.302571-.0482.605595-.0291 1.206207.32398 1.46456.87392.186082.35056.142053.75844.144545 1.14058-.0058.30321.01578.60725-.01329.90963-.09969.68618-.721065 1.27184-1.420532 1.29261-.420345.008-.839859.003-1.259373.003-.250878.0224-.494278-.20519-.469357-.46022.0025-1.08326-.01163-2.16735-.0075-3.25144-.01994-.18941.0839-.38047.258353-.46022m.631349.8598c.005.8033.02908 1.60578.01661 2.40825.38047-.039.831552.11547 1.155532-.14454.315674-.26915.175283-.72107.201865-1.07994-.02492-.33893.09803-.75761-.184419-1.01846-.326474-.28577-.796662-.12793-1.189592-.16531z"/><path d="m21.534061 21.559858c.270814-.17529.665407.0615.657931.37714.00083 1.10818.01246 2.21637.01 3.32455.01662.24257-.200203.46354-.441943.45772-.247555.0108-.469358-.21515-.451912-.46354-.0091-1.07744.0075-2.15655-.01-3.23399-.01744-.18442.06895-.37383.235925-.46188z"/><path d="m24.363495 21.568988c.711097-.23758 1.568401.0681 1.927273.73602.240077.38878.182757.85814.187742 1.2926-.01.35971.0432.73436-.09304 1.07745-.220973.63301-.880565 1.07246-1.550125 1.03508-.785862.006-1.524373-.64797-1.557602-1.44297-.01329-.41868-.0083-.83736-.0042-1.25604.01578-.64547.471019-1.25356 1.089906-1.44214m.251709.82989c-.254201.0964-.465204.33894-.471019.61889-.0066.38629-.0066.77257 0 1.15969.0091.4436.511724.77506.927915.64796.319828-.0822.563229-.39625.542461-.7302 0-.38546.0216-.77174-.01246-1.15554-.07975-.4328-.580674-.69531-.986896-.5408z"/></g></svg>