<svg height="308.42728pt" viewBox="0 0 1839.6421 308.42728" width="1839.6421pt" xmlns="http://www.w3.org/2000/svg" xmlns:xlink="http://www.w3.org/1999/xlink"><linearGradient id="a" gradientUnits="userSpaceOnUse" x1="1255.5197" x2="2219.4192" y1="651.18073" y2="-.280321"><stop offset="0" stop-color="#ea2127"/><stop offset="1" stop-color="#e8058a"/></linearGradient><g fill="url(#a)" transform="translate(-190.80614 -171.29)"><path d="m737.32 171.49c22.1-.9 45.06.98 65.15 10.96 14.7 7.07 27.02 18.67 35.5 32.56 11.26 18.11 16.78 39.11 19.97 60.02 2.39 16.87 3.5 33.94 3.23 50.98.26 16.99-.88 33.99-3.31 50.79-2.85 18.55-7.59 37.07-16.55 53.68-8.11 15.13-20.29 28.27-35.51 36.38-17.91 9.71-38.63 12.95-58.79 12.77-20.26.31-41.1-2.74-59.18-12.32-12.74-6.66-23.53-16.78-31.38-28.79-11.33-17.25-17.34-37.4-20.71-57.61-3.91-23.38-4.51-47.18-3.87-70.84 1.1-24.66 3.91-49.59 12.44-72.91 6.05-16.58 15.51-32.31 29.22-43.67 17.66-14.92 41.08-21.05 63.79-22m-1.74 61.2c-11.34 2.15-20.19 11.06-24.54 21.45-7.79 18.27-8.61 38.48-9.62 58.05-.19 16.06-.26 32.16 1.34 48.17 1.53 14.62 3.7 29.78 11.31 42.64 4.83 8.32 13.29 14.51 22.87 15.99 11.17 1.91 23.73 1.1 33.1-5.89 10.14-7.83 14.52-20.59 17.18-32.65 4.28-21.21 4.56-42.97 4.39-64.53-.71-18.37-1.47-37.05-7-54.73-3.06-9.39-7.97-18.89-16.61-24.27-9.58-5.95-21.63-6.26-32.42-4.23z"/><path d="m276.43 172.15c24.81-1.58 50.04.53 73.91 7.72 4.73 1.59 9.79 2.84 13.76 6.03 2.79 2.29 3.53 6.3 2.77 9.69-2.25 11.11-4.63 22.2-6.9 33.31-.67 3.09-1.72 6.64-4.77 8.17-3.94 2.01-8.45.52-12.41-.62-13.89-3.97-28.37-5.49-42.78-5.84-9.78.48-20.48.61-28.73 6.64-6.41 4.61-8.24 13.15-7.69 20.61.72 9.24 6.51 17.18 13.35 23.04 12.59 10.94 28.04 17.67 42.26 26.13 17.42 10.08 35.08 21.46 46.35 38.59 9.58 14.46 13.35 32.13 12.82 49.32.36 20.54-5.96 41.91-20.47 56.92-13.11 13.88-31.49 21.53-49.97 25.1-19.75 3.74-40.06 3.22-59.97 1.13-15.33-1.87-30.67-4.63-45.2-9.96-3.39-1.36-6.94-2.75-9.57-5.38-2.41-2.43-2.77-6.16-2.06-9.35 2.38-11.38 4.69-22.77 7.1-34.13.84-3.57 2.78-7.57 6.69-8.44 5.3-1.11 10.15 1.81 15.09 3.18 19.35 5.83 39.95 8.39 60.04 5.52 8.55-1.43 17.59-4.21 23.44-10.99 7.48-8.92 7-23.06-.23-31.99-5.9-7.54-14.24-12.6-22.26-17.58-7.16-4.21-14.36-8.38-21.83-12-16.83-8.67-33.6-18.64-45.82-33.39-12.14-14.29-18.29-32.84-19.31-51.4-1-20 1.35-41.34 12.82-58.32 9.42-14.1 25.04-22.8 41.12-27.11 9.29-2.55 18.86-3.83 28.45-4.6z"/><path d="m465.34 178.3c3.11-2.09 7.03-2.44 10.69-2.48 20 0 40 .02 60-.01 3.91.01 8.16.34 11.41 2.78 2.84 2.23 4.06 5.85 5.02 9.2 24.31 91.46 48.74 182.9 73.03 274.37.96 3.49.84 7.7-1.81 10.44-1.92 2.15-4.9 2.92-7.69 2.78-16.38-.05-32.76.04-49.14-.05-5.12-.01-9.44-3.97-10.57-8.85-4.22-16.35-8.25-32.77-12.46-49.13-25.12.04-50.24-.02-75.36.04-4.15 16.28-8.19 32.6-12.39 48.87-1.09 4.7-4.99 8.95-10.04 9.06-16.68.12-33.36 0-50.04.06-3.47.22-7.16-1.42-8.68-4.66-1.98-4.05-.54-8.62.56-12.7 23.87-89.47 47.67-178.96 71.5-268.44 1.1-4.1 2.3-8.69 5.97-11.28m13.31 180.52c18.34.03 36.68-.04 55.03.03-8.62-37.35-17.32-74.68-25.93-112.02-.29-1.5-.88-2.91-1.66-4.2-9.36 38.68-18.3 77.46-27.44 116.19z"/><path d="m894.23 178.27c2.52-1.81 5.68-2.5 8.74-2.45 19.02.01 38.05 0 57.07 0 21.31.12 42.77-.8 63.89 2.68 14.59 2.36 29.19 6.7 41.51 15.1 10.8 7.26 19.3 17.78 24.47 29.7 5.61 12.51 8.04 26.18 9.2 39.77.9 15.31.99 30.82-2.04 45.93-2.77 14.19-8.4 28.11-17.88 39.18-8.9 10.67-21.2 18.05-34.22 22.58 16.33 28.08 32.43 56.3 48.66 84.44 2.32 4.3 5.77 8.52 5.39 13.71-.37 3.87-4.21 6.58-7.96 6.43-17.03.02-34.06.07-51.08-.02-5.53-.08-10.35-3.73-12.77-8.55-15.55-28.54-30.89-57.19-46.39-85.76-7.28-.04-14.55 0-21.83-.01.04 26.67-.01 53.33.03 80-.06 2.95-.23 5.98-1.25 8.79-1.41 3.87-5.8 5.81-9.71 5.59-16.04-.08-32.08.09-48.11-.08-5.39-.05-9.25-5.19-9.1-10.33-.07-92.32.01-184.65-.04-276.98-.09-3.48.74-7.3 3.42-9.72m64.75 57.74c.06 29.33.01 58.67.03 88 12.65-.17 25.34.36 37.98-.46 9.94-1.01 20.95-4.06 26.72-12.92 6.89-10.44 6.75-23.6 6.65-35.64-.49-9.76-1.52-20.49-8.15-28.23-6.6-7.89-17.43-10.03-27.19-10.65-12.01-.25-24.03-.04-36.04-.1z"/><path d="m1111.62 182.13c.87-4.13 5.31-6.39 9.27-6.29 14.37-.05 28.75 0 43.13-.02 4.91.06 10.46-.61 14.63 2.58 3.96 3.41 4.52 8.94 5.63 13.73 9.91 45.63 19.87 91.24 29.78 136.87 5.73 25.24 9.06 50.98 14.59 76.25 1.63-2.39 1.4-5.47 2.11-8.18 4.58-24.36 8.35-48.88 13.86-73.06 9.6-44.15 19.23-88.29 28.82-132.44.94-4.1 1.49-8.57 4.25-11.94 2.54-2.92 6.63-3.83 10.36-3.81 15.32-.02 30.66.04 45.99-.02 3.52-.09 7.56.18 10.16 2.88 2.58 2.95 2.49 7.21 1.58 10.79-23.12 89.57-46.19 179.15-69.29 268.72-1.09 4.09-1.78 8.44-4.18 12.03-2.26 3.34-6.31 5.23-10.3 5.13-22.34.01-44.69.06-67.04-.02-6.65-.08-11.24-6.11-12.55-12.13-22.85-88.43-45.62-176.88-68.42-265.32-1.14-5.17-3.49-10.36-2.38-15.75z"/><path d="m1376.36 176.59c2.77-.99 5.77-.75 8.68-.78 13.66.03 27.32 0 40.98 0 3.04-.01 6.21.6 8.71 2.44 2.58 2.05 3.34 5.57 3.46 8.71-.01 91.33-.03 182.67 0 274 .06 3.7.12 7.75-2.19 10.86-2.08 2.73-5.69 3.71-8.98 3.56-16.02-.06-32.04.05-48.05-.05-5.44.04-9.31-5.12-9.13-10.28-.04-92.7 0-185.4-.02-278.1-.14-4.31 2.04-9.21 6.54-10.36z"/><path d="m1479.46 178.54c2.79-2.62 6.88-2.71 10.51-2.74 48.33.03 96.67.01 145.01 0 3.29.11 7.03.3 9.57 2.7 2.37 2.08 3.15 5.4 3.11 8.45-.03 12.69-.02 25.38-.01 38.07.05 3.05-.86 6.31-3.25 8.33-2.9 2.38-6.85 2.45-10.4 2.64-30 .03-60-.01-90 .01v58.37c29.36.01 58.72-.02 88.08-.01 3.26-.01 6.87 1.05 8.72 3.96 2.26 3.45 1.79 7.75 1.85 11.68-.11 10.79.15 21.59-.12 32.37-.05 5.26-4.74 9.41-9.91 9.2-29.54.14-59.08.02-88.62.06v64.01c30.01-.02 60.01.01 90.02-.02 3.41.03 7.03-.27 10.23 1.21 3.36 1.67 5.2 5.46 5.1 9.13-.01 13.35.1 26.71-.04 40.06-.03 4.97-4.29 9.43-9.34 9.31-50.99.1-101.99-.01-152.98.05-2.98.07-6.14-.8-8.17-3.08-1.96-2.27-2.49-5.35-2.45-8.26.02-92.37.01-184.74-.01-277.11 0-3.03.71-6.31 3.1-8.39z"/><path d="m1664.92 189.01c-1.53-5.32.89-12.37 7.09-12.93 13.98-.65 28.03-.09 42.03-.28 5.58.23 11.81-1.01 16.76 2.28 4.05 2.88 5.08 8.12 5.87 12.71 12.14 65.31 25 130.49 35.9 196.02.46 1.54.12 3.75 1.83 4.58 4.05-23.16 8-46.35 12.05-69.51 8.42-43.47 16.89-86.93 25.33-130.4.8-4.02 1.21-8.44 4.01-11.68 2.75-3.15 7.19-3.98 11.19-4.01h41c3.76.05 7.85.7 10.7 3.39 2.37 2.27 3.33 5.52 3.91 8.66 12.51 66.19 25.69 132.27 37.16 198.66.51 1.62.06 3.95 1.83 4.88 4.32-23.81 8.25-47.69 12.55-71.51 8.33-44.28 16.6-88.57 25.01-132.84.82-5.75 5.35-11 11.43-11.08 15.46-.37 30.93-.03 46.4-.17 3.87-.04 8.46-.13 11.32 2.99 2.7 3.02 2.35 7.42 1.69 11.14-19.67 87.94-39.34 175.88-58.99 263.83-1.39 5.26-1.83 10.9-4.56 15.7-2.16 4.08-6.96 6.09-11.4 5.97-19.03-.03-38.05-.02-57.08-.01-3.57.09-7.28-1.07-9.79-3.66-2.4-2.63-3.57-6.09-4.34-9.49-5.11-23.38-10.27-46.74-15.38-70.12-4.73-21.15-9.42-42.3-13.15-63.65-2.59-13.31-4.77-26.71-7.63-39.96-1.43 3.28-1.6 6.9-2.35 10.36-3.88 20.2-7.39 40.48-11.51 60.63-7.65 34.81-15.3 69.63-22.95 104.44-.85 4.1-3.04 8.32-7.06 10.07-3.32 1.72-7.15 1.35-10.74 1.36-17.71-.01-35.41 0-53.11 0-4.27.07-8.7-1.9-10.98-5.6-2.66-4.11-3.24-9.1-4.35-13.76-19.88-89.01-39.85-178-59.69-267.01z"/></g></svg>