<?xml version="1.0" encoding="UTF-8" standalone="no"?>
<!-- Created with Inkscape (http://www.inkscape.org/) -->

<svg
   xmlns:dc="http://purl.org/dc/elements/1.1/"
   xmlns:cc="http://creativecommons.org/ns#"
   xmlns:rdf="http://www.w3.org/1999/02/22-rdf-syntax-ns#"
   xmlns:svg="http://www.w3.org/2000/svg"
   xmlns="http://www.w3.org/2000/svg"
   xmlns:xlink="http://www.w3.org/1999/xlink"
   xmlns:sodipodi="http://sodipodi.sourceforge.net/DTD/sodipodi-0.dtd"
   xmlns:inkscape="http://www.inkscape.org/namespaces/inkscape"
   height="219.64"
   width="600"
   version="1.1"
   id="svg24"
   sodipodi:docname="TG4.svg"
   inkscape:export-filename="C:\Users\Jasmeet\Desktop\Logos\Ireland\mediaportal-ie-logos\TV\Source\TG4.png"
   inkscape:export-xdpi="96"
   inkscape:export-ydpi="96"
   inkscape:version="0.92.0 r15299">
  <sodipodi:namedview
     pagecolor="#ffffff"
     bordercolor="#666666"
     borderopacity="1"
     objecttolerance="10"
     gridtolerance="10"
     guidetolerance="10"
     inkscape:pageopacity="0"
     inkscape:pageshadow="2"
     inkscape:window-width="1920"
     inkscape:window-height="1017"
     id="namedview26"
     showgrid="false"
     fit-margin-top="0"
     fit-margin-left="0"
     fit-margin-right="0"
     fit-margin-bottom="0"
     inkscape:zoom="0.94666667"
     inkscape:cx="164.76174"
     inkscape:cy="218.87322"
     inkscape:window-x="-8"
     inkscape:window-y="-8"
     inkscape:window-maximized="1"
     inkscape:current-layer="svg24" />
  <defs
     id="defs14">
    <radialGradient
       r="1"
       gradientTransform="matrix(-1.4628794e-5,323.07386,-581.9203,-2.560039e-5,354.94737,-183.88025)"
       cx="0"
       cy="0"
       gradientUnits="userSpaceOnUse"
       id="radialGradient4505">
      <stop
         id="stop4501"
         offset="0"
         stop-color="#28292b"
         style="stop-color:#ffffff;stop-opacity:1" />
      <stop
         id="stop4503"
         offset="1"
         stop-color="#040606"
         style="stop-color:#b8bab8;stop-opacity:1" />
    </radialGradient>
    <linearGradient
       id="linearGradient3603"
       gradientUnits="userSpaceOnUse"
       gradientTransform="matrix(10.538625,86.296926,-86.296926,10.538625,295.65418,72.697521)"
       x1="0"
       x2="1"
       y1="0"
       y2="0"
       xlink:href="#radialGradient3608">
      <stop
         stop-color="#FFF"
         offset="0"
         id="stop2"
         style="stop-color:#28292b;stop-opacity:1" />
      <stop
         stop-color="#b8bab8"
         offset="1"
         id="stop6"
         style="stop-color:#040606;stop-opacity:1" />
    </linearGradient>
    <radialGradient
       id="radialGradient3608"
       gradientUnits="userSpaceOnUse"
       cy="0"
       cx="0"
       gradientTransform="matrix(-1.4628794e-5,323.07386,-581.9203,-2.560039e-5,354.94737,-183.88025)"
       r="1">
      <stop
         stop-color="#28292b"
         offset="0"
         id="stop9" />
      <stop
         stop-color="#040606"
         offset="1"
         id="stop11" />
    </radialGradient>
    <radialGradient
       inkscape:collect="always"
       xlink:href="#radialGradient4505"
       id="radialGradient4506"
       gradientUnits="userSpaceOnUse"
       gradientTransform="matrix(0,0.52254469,-1.7683348,0,613.48354,-198.15927)"
       cx="379.1452"
       cy="13.087054"
       fx="379.1452"
       fy="13.087054"
       r="418.15814" />
  </defs>
  <metadata
     id="metadata16">
    <rdf:RDF>
      <cc:Work
         rdf:about="">
        <dc:format>image/svg+xml</dc:format>
        <dc:type
           rdf:resource="http://purl.org/dc/dcmitype/StillImage" />
        <dc:title></dc:title>
      </cc:Work>
    </rdf:RDF>
  </metadata>
  <path
     sodipodi:nodetypes="cccccccccc"
     style="fill:url(#radialGradient4506);fill-opacity:1;stroke:none;stroke-opacity:1"
     inkscape:connector-curvature="0"
     id="path18"
     d="M 379.59,219.64 H 600 V 0 H 379.59033 Z M 0,219.64 H 363.67 L 363.67033,0 H 0 Z" />
  <path
     style="fill:url(#linearGradient3603);fill-opacity:1"
     inkscape:connector-curvature="0"
     id="path20"
     d="m 415.39,134.50041 c 0,3.9742 0.18286,9.0577 0.80459,13.666 h 88.26 v 49.25 l 33.476,-10.362 v -38.888 h 25.588 v -29.014 h -25.588 V 28.649411 c -4.7787,-0.79239 -11.118,-0.79239 -15.104,-0.79239 -59.417,0 -107.44,43.533 -107.44,106.639999 m 89.065,-73.850999 v 58.502999 h -54.651 c 3.5475,-29.720999 26.307,-53.089999 54.651,-58.502999 m -337.02,49.176999 c 0,47.751 35.487,82.762 83.238,82.762 44.02,0 81.165,-32.634 81.165,-81.97 v -9.5453 h -73.607 l -13.8,27.868 h 50.713 c -5.949,18.944 -21.419,31.866 -43.947,31.866 -28.538,0 -48.775,-21.017 -48.775,-50.262 0,-29.500999 19.286,-50.883999 46.556,-50.883999 16.384,0 28.209,8.314 34.621,17.542 h 41.875 c -15.92,-33.44 -46.162,-49.36 -76.407,-49.36 -44.557,0 -81.641,32.634 -81.641,81.969999 m -135.61,-79.580999 v 29.002 h 53.261 V 192.57072 l 33.39,1e-4 V 59.230721 h 43.923 l 14.263,-29.002 h -144.84 z"
     sodipodi:nodetypes="ccccccccccsccccccssccccsssccsccccccccccc" />
</svg>
